<svg width="20" height="20" viewBox="0 0 20 20" fill="none" xmlns="http://www.w3.org/2000/svg">
<path d="M18.4671 19.9999H4.86191C4.81883 19.9865 4.77502 19.9756 4.7307 19.9671C2.50363 19.654 1.01198 18.435 0.258495 16.3317C0.124533 15.9572 0.0836771 15.549 0 15.1577V14.2577C0.0151001 14.216 0.0270498 14.1732 0.0357494 14.1297C0.237281 12.5425 1.00216 11.2927 2.31428 10.3754C3.02652 9.87724 3.82636 9.59275 4.70713 9.48436V9.24957C4.70713 6.79729 4.70713 4.34397 4.70713 1.88961C4.70713 0.737563 5.44687 0.00422845 6.60852 0.00422845C9.52059 0.00344581 12.4334 0.00201096 15.3471 -7.6078e-05C15.4704 -0.00387307 15.5932 0.018598 15.7072 0.0658358C15.8211 0.113074 15.9236 0.18399 16.0079 0.273848C17.2414 1.5112 18.4794 2.74425 19.7219 3.973C19.8138 4.0596 19.8862 4.16474 19.9342 4.28141C19.9822 4.39809 20.0046 4.5236 20 4.64959C19.9937 7.23935 19.9924 9.82924 19.9961 12.4193C19.9961 14.3457 20.0004 16.2718 19.9941 18.1979C19.9914 18.9762 19.6236 19.5354 18.9118 19.8602C18.7716 19.9232 18.6156 19.9537 18.4671 19.9999ZM10.5535 14.1415H14.5457C15.2381 14.1415 15.9307 14.1415 16.6235 14.1415C16.8918 14.1415 17.0949 14.2549 17.2017 14.4991C17.3809 14.901 17.0792 15.3123 16.6066 15.3127C14.6661 15.3143 12.7257 15.3143 10.7853 15.3127H10.5555C10.3716 16.7344 9.7305 17.8868 8.62502 18.8279H18.1049C18.6022 18.8279 18.8199 18.6107 18.8199 18.1149V5.08044H15.6099C15.1145 5.08044 14.8992 4.86286 14.8992 4.36354C14.8992 3.37428 14.8992 2.38502 14.8992 1.39576V1.17389H14.6828C11.9852 1.17389 9.28685 1.17389 6.5877 1.17389C6.10214 1.17389 5.88057 1.39302 5.88057 1.87552C5.88057 4.34189 5.88057 6.80838 5.88057 9.275V9.48436C6.82006 9.59458 7.71409 9.94837 8.47338 10.5104C8.57133 10.5794 8.68775 10.6177 8.8077 10.6204C11.3743 10.6266 13.942 10.6283 16.5107 10.6254C16.5759 10.6254 16.6419 10.6219 16.7071 10.6278C16.8018 10.6352 16.8933 10.6655 16.9736 10.716C17.0539 10.7666 17.1207 10.8358 17.1681 10.9178C17.2155 10.9998 17.2422 11.0921 17.2458 11.1866C17.2494 11.2812 17.2298 11.3752 17.1888 11.4605C17.0654 11.7114 16.8497 11.7986 16.5779 11.7982C14.3693 11.7959 12.1609 11.7959 9.95286 11.7982H9.692C10.1587 12.5017 10.4537 13.3041 10.5535 14.1415ZM5.29837 18.8279C7.56394 18.8256 9.40994 16.984 9.40994 14.7265C9.42116 14.1806 9.32281 13.6379 9.12066 13.1304C8.91852 12.6228 8.61665 12.1606 8.23276 11.7708C7.84888 11.3811 7.39071 11.0716 6.88514 10.8606C6.37957 10.6495 5.83679 10.5412 5.28862 10.5419C4.74046 10.5427 4.19796 10.6524 3.69296 10.8648C3.18796 11.0772 2.73063 11.3879 2.34779 11.7787C1.96495 12.1695 1.66432 12.6325 1.46354 13.1406C1.26276 13.6487 1.16587 14.1916 1.17855 14.7374C1.18051 16.993 3.03162 18.8303 5.29837 18.8279ZM16.0821 3.89395H17.8892C17.2944 3.3011 16.6812 2.69064 16.0821 2.09388V3.89395Z" fill="black"/>
<path d="M12.3387 8.28313C10.9218 8.28313 9.50492 8.28313 8.08804 8.28313C7.62644 8.28313 7.32905 7.88085 7.49444 7.48288C7.5903 7.25121 7.77297 7.12756 8.02401 7.11425C8.16072 7.10682 8.299 7.1123 8.43493 7.1123C11.1587 7.1123 13.8814 7.1123 16.6031 7.1123C17.0772 7.1123 17.3793 7.51888 17.2029 7.92194C17.0882 8.18412 16.8714 8.28547 16.5889 8.28508C15.1723 8.28169 13.7556 8.28104 12.3387 8.28313Z" fill="black"/>
<path d="M6.12367 14.7265C6.57191 15.1722 7.00051 15.5995 7.43068 16.0256C7.59332 16.1873 7.6825 16.3755 7.62986 16.6064C7.52536 17.0673 6.98283 17.2239 6.63241 16.8873C6.24231 16.5128 5.86399 16.1258 5.48136 15.7431C5.42636 15.6879 5.37725 15.6257 5.31047 15.5518C5.24329 15.614 5.19261 15.6594 5.14311 15.7083C4.75026 16.0996 4.36174 16.4944 3.96456 16.8791C3.611 17.2203 3.07633 17.0791 2.96122 16.6201C2.90308 16.3896 2.9848 16.1994 3.14822 16.0366C3.53583 15.6502 3.92318 15.2635 4.31027 14.8763C4.35545 14.8313 4.39788 14.7832 4.4733 14.7026C4.27256 14.5151 4.07535 14.3371 3.88403 14.1524C3.64557 13.9207 3.41261 13.6828 3.1769 13.448C2.8854 13.1561 2.86262 12.8004 3.11601 12.5519C3.3694 12.3034 3.71668 12.3304 4.00188 12.6122C4.38216 12.9878 4.76009 13.3662 5.14115 13.7431C5.18672 13.7885 5.23426 13.8315 5.29318 13.8871C5.34936 13.8354 5.40161 13.7896 5.45032 13.7403C5.83414 13.3592 6.2156 12.9757 6.60098 12.5957C6.87244 12.3277 7.22954 12.3136 7.47272 12.5566C7.71589 12.7996 7.70293 13.1537 7.43343 13.4253C7.00601 13.8526 6.57427 14.2792 6.12367 14.7265Z" fill="black"/>
</svg>
