<svg width="21" height="20" viewBox="0 0 21 20" fill="none" xmlns="http://www.w3.org/2000/svg">
<path d="M0 19.4143C0.165532 18.9989 0.2907 18.9156 0.755494 18.9156H19.269C19.3507 18.9135 19.4325 18.9174 19.5136 18.9273C19.636 18.9411 19.75 18.9938 19.8374 19.0772C19.9248 19.1605 19.9805 19.2696 19.9955 19.3869C20.031 19.6216 19.9107 19.8336 19.6791 19.9471L19.5703 19.9999H0.448485C0.333215 19.9612 0.230827 19.8937 0.151959 19.8043C0.0730914 19.7149 0.0206212 19.6068 0 19.4914L0 19.4143Z" fill="black"/>
<path d="M17.6356 3.38179C17.6274 4.43245 17.2711 5.25115 16.5669 5.92707C13.5333 8.84043 10.498 11.7513 7.46106 14.6597C7.34467 14.7668 7.20051 14.842 7.04356 14.8776C5.30588 15.2492 3.56576 15.6106 1.82482 15.9728C1.25402 16.0902 0.904205 15.7557 1.02693 15.2105C1.40365 13.541 1.77957 11.8711 2.16853 10.2036C2.20277 10.0573 2.31653 9.91181 2.43069 9.80151C5.05419 7.26836 7.68095 4.73781 10.311 2.20988C10.7464 1.79095 11.1721 1.36106 11.623 0.958167C12.6492 0.0389412 13.8597 -0.223136 15.1819 0.19032C16.5441 0.616293 17.3277 1.56446 17.5838 2.91318C17.6188 3.09781 17.6258 3.28557 17.6356 3.38179ZM11.5545 2.59674L3.62162 10.2091C4.73903 11.3085 5.87084 12.4225 7.01706 13.5512C9.67264 10.9734 12.3171 8.40689 14.9504 5.85158C13.8418 4.78801 12.6965 3.69042 11.5545 2.59674ZM12.3418 1.79603L15.8437 5.06847C16.7569 4.27911 16.7455 2.68788 15.7915 1.7796C14.8374 0.871329 13.2037 0.867809 12.3418 1.79603ZM2.29736 14.7591L5.80574 14.0159L3.06957 11.3908C2.8172 12.4903 2.56156 13.6067 2.29736 14.7591Z" fill="black"/>
</svg>
