<svg width="21" height="20" viewBox="0 0 21 20" fill="none" xmlns="http://www.w3.org/2000/svg">
<path d="M20.0065 19.1237V19.1189C20.0065 18.807 20.0065 18.4843 20.0006 18.166C19.994 17.9407 19.9614 17.7169 19.9035 17.499C19.751 16.9248 19.4165 16.458 18.9091 16.1121C18.5019 15.8356 18.0671 15.6935 17.6173 15.6931C16.5092 15.6915 15.4011 15.6907 14.2929 15.6907H13.1505V15.5983C13.1505 15.4861 13.1505 15.3708 13.1505 15.2567C14.1561 14.9762 15.0316 14.352 15.6246 13.4926C15.9635 13.0029 16.1995 12.4495 16.3185 11.866C16.3688 11.6243 16.3974 11.3786 16.4038 11.1318C16.4128 10.8159 16.4113 10.4956 16.4097 10.184V9.87679C16.512 9.86652 16.6071 9.85704 16.7035 9.85467C16.9364 9.84424 17.1637 9.78018 17.3677 9.66748C17.8543 9.41671 18.1718 9.01785 18.3116 8.48274C18.3755 8.2375 18.3829 7.98094 18.3333 7.73241C18.2826 7.43987 18.1613 7.16413 17.9799 6.92915C17.6288 6.48922 17.1813 6.25425 16.6494 6.23134C16.5704 6.22818 16.4914 6.22068 16.4105 6.21199V6.16341C16.4124 5.74599 16.4148 5.31435 16.3287 4.88548C16.3177 4.83019 16.3066 4.7745 16.2959 4.71882C16.2545 4.47418 16.1962 4.23271 16.1214 3.99613C16.0036 3.6488 15.8591 3.31107 15.6894 2.98594C15.4908 2.61894 15.2495 2.27667 14.9706 1.96627C14.6408 1.58971 14.2625 1.25864 13.8455 0.981755C13.2729 0.599479 12.707 0.345944 12.1162 0.206935C11.8245 0.131931 11.528 0.0771713 11.2288 0.0430456C10.8659 0.00908301 10.4966 0.00829318 10.1388 0.00750336H10.1096C9.9327 0.00750336 9.7542 0.0130321 9.58518 0.0189558H9.57017C9.41655 0.0244846 9.25779 0.0300134 9.10299 0.0308033C9.03027 0.029954 8.95764 0.0253405 8.88539 0.0169813H8.87552C8.78375 0.00628829 8.69147 0.000619408 8.59908 0C8.12518 0.00513388 7.66313 0.0118474 7.19121 0.0355422C6.84527 0.0529184 6.47681 0.0864861 6.09651 0.134666C5.78532 0.174157 5.47176 0.223126 5.1657 0.270911C5.02037 0.293421 4.87465 0.316326 4.7313 0.338046C4.45881 0.377537 4.24911 0.624753 4.26411 0.886581C4.28031 1.17329 4.54055 1.37627 4.77434 1.38615C5.00528 1.39304 5.22999 1.46266 5.42437 1.58755C5.27983 1.73367 5.12937 1.88848 4.98286 2.05158C4.73339 2.32539 4.52096 2.63076 4.351 2.95988C4.22063 3.20966 4.10332 3.46604 3.99952 3.72798C3.8894 4.00486 3.80068 4.28977 3.73414 4.58021C3.64405 5.01031 3.60272 5.4492 3.61093 5.88856C3.61093 5.96517 3.61093 6.04139 3.61093 6.12116C3.61093 6.15196 3.61093 6.18277 3.61093 6.21317C3.51773 6.21752 3.41702 6.22423 3.31593 6.23845L3.24405 6.24793C3.10019 6.26054 2.95864 6.29214 2.82307 6.34192C2.22399 6.58755 1.83579 7.0338 1.70468 7.63289C1.54948 8.33386 1.75483 8.95506 2.29705 9.42974C2.59837 9.69315 2.93918 9.83611 3.3104 9.85507C3.40755 9.85981 3.50785 9.86928 3.61132 9.87955C3.61409 10.0304 3.61567 10.1813 3.61764 10.3321C3.62198 10.7219 3.62672 11.1251 3.64884 11.5228C3.67174 11.9367 3.79417 12.3734 4.02282 12.8584C4.29711 13.4396 4.69359 13.9548 5.18519 14.3687C5.67679 14.7827 6.25192 15.0857 6.87133 15.2571C6.87133 15.3665 6.87133 15.4751 6.87133 15.5809C6.87133 15.6173 6.87133 15.6536 6.87133 15.6903H5.85522C4.83555 15.6903 3.68004 15.6903 2.56243 15.6903C2.32548 15.6903 2.05141 15.7014 1.77576 15.7902C1.43195 15.8978 1.11521 16.0778 0.846928 16.3182C0.403045 16.7202 0.136083 17.202 0.0571005 17.7494C-0.0127992 18.2047 -0.00292633 18.6612 0.0069465 19.1043C0.0112906 19.3105 0.0160295 19.5198 0.0124753 19.7251C0.0160087 19.7934 0.0440811 19.8582 0.0915315 19.9075C0.138982 19.9567 0.202621 19.9872 0.270749 19.9933C0.423185 19.9976 0.572857 19.9972 0.717396 19.9964H1.04517L1.05386 19.8077C1.05386 19.7935 1.05386 19.7796 1.05623 19.7638C1.05821 19.7323 1.05979 19.6995 1.05979 19.6663C1.05979 19.5233 1.05979 19.3808 1.05979 19.2378V19.2272C1.05979 18.9112 1.05742 18.5807 1.06413 18.2584C1.06847 18.0436 1.09098 17.766 1.22525 17.5227C1.50564 17.0156 1.91438 16.7534 2.44001 16.7443C3.23892 16.7297 4.0477 16.7333 4.82963 16.7364H4.88255L5.5539 16.7388C5.69054 16.8715 5.82679 17.0085 5.95829 17.1408L5.96659 17.1491L6.13087 17.3142L6.71811 17.8999L6.74891 17.9307C7.25242 18.433 7.77331 18.9523 8.28907 19.4708C8.34692 19.5334 8.41767 19.5827 8.49641 19.6153C8.57516 19.6479 8.66004 19.663 8.7452 19.6596C8.8239 19.6532 8.90029 19.6299 8.96914 19.5913C9.03799 19.5526 9.09766 19.4996 9.14406 19.4357C9.21949 19.3369 9.30202 19.2382 9.38101 19.1399C9.41602 19.0967 9.45078 19.0537 9.48526 19.0107L9.66298 18.7892C9.77987 18.6439 9.8965 18.4983 10.0129 18.3524C10.2001 18.5894 10.4038 18.8461 10.6495 19.1494C10.7554 19.2842 10.8681 19.4137 10.9871 19.5372C11.071 19.6169 11.181 19.6635 11.2966 19.6683C11.4122 19.6731 11.5256 19.6357 11.6158 19.5632C11.7738 19.4278 11.9239 19.2805 12.0672 19.1375C12.7887 18.4203 13.6378 17.5752 14.4647 16.7463C14.4707 16.74 14.4742 16.7376 14.4742 16.7368H14.4861C14.8691 16.7368 15.2522 16.7368 15.6353 16.7368C16.1901 16.7368 16.82 16.7368 17.4278 16.7388C17.5652 16.7417 17.7024 16.7542 17.8381 16.7763C18.0197 16.8073 18.1912 16.8812 18.3384 16.9919C18.7527 17.2893 18.9561 17.7028 18.9604 18.2533C18.9644 18.7398 18.964 19.22 18.9604 19.6809C18.9575 19.725 18.9636 19.7693 18.9785 19.8109C18.9934 19.8526 19.0167 19.8907 19.0469 19.923C19.0757 19.9492 19.1094 19.9694 19.1461 19.9826C19.1828 19.9957 19.2217 20.0015 19.2606 19.9996H19.2906C19.4406 19.9917 19.5923 19.9949 19.7072 19.9996C19.7477 20.0034 19.7886 19.9987 19.8272 19.9858C19.8658 19.973 19.9013 19.9523 19.9315 19.925C19.9596 19.8952 19.9812 19.86 19.9952 19.8216C20.0092 19.7832 20.0152 19.7423 20.0129 19.7014C20.0054 19.5079 20.0058 19.3105 20.0065 19.1237ZM12.1028 15.8826L10.8829 16.4888L10.2905 16.7838C10.2786 16.7897 10.2664 16.7953 10.2538 16.8008C10.2036 16.8215 10.156 16.848 10.112 16.8798C10.0575 16.9216 10.0216 16.9394 9.85767 16.8553C9.46275 16.6519 9.06587 16.4533 8.68083 16.2629C8.43203 16.1389 8.17534 16.011 7.92101 15.8822C7.91785 15.7756 7.91825 15.6662 7.91864 15.5596C7.91864 15.5098 7.91864 15.4597 7.91864 15.4099C8.09556 15.4214 8.27762 15.4324 8.46046 15.4328C9.73209 15.436 11.0132 15.4328 11.8666 15.4328C11.9459 15.4317 12.025 15.4258 12.1035 15.4151V15.6125C12.1035 15.6417 12.1035 15.6714 12.1035 15.701C12.1016 15.7602 12.1008 15.8202 12.1028 15.8826ZM13.3665 3.09454C13.2287 2.45755 12.9818 1.93073 12.6161 1.49593C13.1583 1.74035 13.6469 2.08926 14.054 2.52271L13.3665 3.09454ZM8.83089 8.45549V8.46102C8.83089 8.62333 8.83089 8.78604 8.83089 8.94835C8.83305 8.99331 8.82634 9.03827 8.81115 9.08064C8.8044 9.10075 8.79095 9.11792 8.77305 9.12928C8.75514 9.14064 8.73388 9.1455 8.71281 9.14304H8.63936H8.59276H7.89416C7.3239 9.14304 6.7339 9.14067 6.15259 9.14738C6.10096 9.15232 6.0494 9.13734 6.00845 9.10552C5.9654 9.06248 5.96145 8.98349 5.96185 8.9515C5.96461 8.64703 5.96659 8.29002 5.96185 7.92473C6.30977 7.9267 6.66163 7.9267 7.00244 7.92473H7.80451C8.14177 7.92473 8.49008 7.92473 8.83405 7.92473C8.8305 8.10284 8.8305 8.28173 8.83089 8.45549ZM11.1929 7.92591H14.0588C14.0588 7.98831 14.0588 8.05071 14.0588 8.11271V8.11705C14.0588 8.42429 14.0615 8.71456 14.0548 9.00877C14.0553 9.02648 14.0523 9.04412 14.0458 9.06062C14.0393 9.07712 14.0296 9.09213 14.0171 9.10476C14.0047 9.11738 13.9898 9.12735 13.9734 9.13407C13.957 9.14078 13.9394 9.1441 13.9217 9.14383H12.9585H12.6841C12.2283 9.14383 11.7726 9.14383 11.3169 9.14383C11.2284 9.14383 11.1984 9.11381 11.1952 9.03009C11.1905 8.76353 11.1909 8.49222 11.1909 8.2296L11.1929 7.92591ZM14.1152 6.21357C14.1754 6.45224 14.2875 6.67472 14.4434 6.86518C14.3601 6.87031 14.2748 6.86834 14.1863 6.86518C14.1393 6.86518 14.0923 6.86518 14.0434 6.86518C11.7568 6.86518 9.47013 6.86518 7.18331 6.86518H5.75175C5.69054 6.86518 5.63091 6.86518 5.57286 6.86518C5.81353 6.56746 5.94977 6.19896 5.96066 5.81629C5.96935 5.56275 6.01871 5.36964 6.11626 5.20891C6.27422 4.9459 6.4859 4.7824 6.75878 4.70895C6.84939 4.68259 6.94177 4.6628 7.03522 4.64971C7.055 4.65261 7.07453 4.65697 7.09367 4.66274C7.10947 4.66709 7.12487 4.67143 7.14027 4.67499C7.23742 4.69789 7.33457 4.72159 7.43527 4.74607C7.59323 4.78556 7.75515 4.82505 7.91667 4.8602C8.08569 4.89969 8.25748 4.93484 8.42571 4.97038C8.55129 4.99724 8.67688 5.02369 8.80206 5.05134C8.88342 5.0695 8.96437 5.08846 9.04889 5.10821C9.17802 5.13901 9.31111 5.17021 9.44617 5.19706L9.52831 5.21365C9.69923 5.25345 9.87348 5.27725 10.0488 5.28473C10.1896 5.28066 10.3294 5.2593 10.465 5.22115C10.501 5.21246 10.5369 5.20378 10.5729 5.19627C10.7612 5.15678 10.9512 5.11176 11.1364 5.06911L11.1652 5.0624L11.3591 5.01777L11.5913 4.96446L11.6142 4.95932C11.7908 4.91983 11.9732 4.87679 12.1525 4.8373C12.2659 4.81242 12.3859 4.78793 12.4913 4.76661C12.5845 4.74765 12.6777 4.72712 12.7709 4.70895C12.8104 4.70066 12.8428 4.69039 12.8756 4.68012C12.9075 4.66902 12.9405 4.66108 12.9739 4.65643C13.0439 4.65039 13.1145 4.6564 13.1824 4.6742C13.3894 4.73659 13.5327 4.80847 13.6473 4.90759C13.8735 5.10505 13.9987 5.3258 14.0299 5.58763C14.0362 5.64292 14.0418 5.6986 14.0469 5.75389L14.1259 5.74639L14.0469 5.75428C14.0575 5.90892 14.0802 6.06249 14.1148 6.21357H14.1152ZM15.3395 6.30914C15.2657 6.23754 15.207 6.152 15.1667 6.05749C15.1263 5.96298 15.1052 5.86139 15.1045 5.75863C15.0851 5.08056 14.8221 4.52413 14.3226 4.10473C14.2304 4.03017 14.1316 3.96408 14.0276 3.90727L14.6922 3.3544C14.7475 3.44878 14.8 3.53922 14.8502 3.63084C15.0255 3.97377 15.1581 4.3369 15.2451 4.71211C15.2909 4.90309 15.3184 5.098 15.3272 5.29421C15.343 5.61212 15.3497 5.93673 15.356 6.2503V6.28979C15.356 6.30084 15.356 6.3119 15.356 6.32257L15.3395 6.30914ZM12.2872 3.73549L11.6849 3.86936L11.2213 3.97401L10.764 4.07669C10.7028 4.09051 10.6388 4.10276 10.5764 4.11618C10.4299 4.14033 10.2854 4.17518 10.144 4.22044C10.0338 4.25993 9.92599 4.2315 9.78856 4.19675C9.73209 4.18253 9.67324 4.16792 9.61124 4.15725C9.43906 4.12843 9.26293 4.08538 9.09233 4.04391C9.01097 4.02417 8.92962 4.00442 8.84827 3.98586C8.57341 3.92294 8.29868 3.86067 8.02409 3.79907L7.89416 3.76945C7.78595 3.74457 7.67459 3.7189 7.56204 3.696C7.53755 3.36229 7.45699 3.04439 7.37208 2.7482C7.24287 2.28457 7.03328 1.84722 6.75286 1.45605C6.67233 1.3482 6.58473 1.24583 6.49064 1.14959H6.49459C6.75246 1.12274 7.01903 1.0951 7.27888 1.08167C7.72672 1.05837 8.20338 1.03665 8.67293 1.04929C9.18316 1.06271 9.59347 1.11405 9.9643 1.2108L9.99115 1.21791C10.2822 1.29413 10.5835 1.37272 10.854 1.48922C11.4488 1.74473 11.8761 2.13846 12.1241 2.65895C12.2373 2.8849 12.313 3.1278 12.348 3.37809C12.3618 3.48985 12.3784 3.59806 12.3958 3.71179L12.2872 3.73549ZM6.45114 3.38954C6.46181 3.44957 6.47247 3.50802 6.48471 3.56883C6.49222 3.60596 6.49853 3.64466 6.50485 3.68731C6.34506 3.72719 6.19137 3.78842 6.04794 3.86936C5.63883 4.08896 5.31206 4.43542 5.11673 4.85665C4.96193 5.18166 4.9327 5.52168 4.90703 5.82182C4.90173 5.91757 4.87734 6.01131 4.83529 6.09751C4.79325 6.1837 4.73439 6.26063 4.66219 6.32375C4.66219 6.27873 4.66219 6.23371 4.66219 6.18829C4.66574 5.86052 4.67008 5.52129 4.69852 5.19351C4.7309 4.8211 4.83239 4.43093 5.00932 4.00126C5.15315 3.63773 5.34407 3.29465 5.5772 2.98081C5.72176 2.79981 5.87697 2.62759 6.04201 2.46505L6.10599 2.3991C6.10599 2.40305 6.10954 2.40739 6.11152 2.41134L6.11586 2.42121C6.20472 2.61867 6.28884 2.80586 6.35834 2.99937C6.39993 3.12666 6.43097 3.25716 6.45114 3.38954ZM4.91098 7.80744V7.82798C4.91098 7.94645 4.91098 8.06492 4.91098 8.1834C4.91098 8.44996 4.90861 8.72522 4.91454 8.99771C4.92599 9.52926 5.1815 9.91312 5.65381 10.1086C5.79309 10.1624 5.94129 10.1893 6.09059 10.188C6.94281 10.1915 7.83453 10.1907 8.81549 10.1852C9.2341 10.1828 9.70681 9.81281 9.80791 9.4096C9.85013 9.2401 9.8737 9.06649 9.8782 8.89187C9.88689 8.56567 9.88452 8.2375 9.88057 7.92591C9.96272 7.92828 10.0496 7.92828 10.1428 7.92591C10.1428 7.97291 10.1428 8.0199 10.1428 8.0669C10.1428 8.40652 10.14 8.758 10.1515 9.10513C10.1657 9.53953 10.3979 9.87995 10.8228 10.0845C10.955 10.1482 11.0995 10.1823 11.2462 10.1844C12.0633 10.1911 12.9175 10.1903 13.671 10.19H13.9427C14.3846 10.19 14.7258 9.98499 14.9576 9.58139C15.0583 9.40297 15.1098 9.201 15.1069 8.99613C15.1069 8.85686 15.1069 8.71732 15.1069 8.57752V8.54277C15.1069 8.2999 15.1069 8.04952 15.1069 7.79994C15.1858 7.78493 15.2648 7.76439 15.3383 7.74425L15.3647 7.73715C15.3647 8.03491 15.3647 8.33307 15.3671 8.63399C15.3699 9.40289 15.3726 10.1982 15.3608 10.979C15.3442 12.0871 14.8928 12.993 14.0201 13.6719C13.6788 13.9445 13.2821 14.1393 12.8578 14.243L12.825 14.2505C12.6256 14.2971 12.4191 14.3452 12.2252 14.35C11.4622 14.3673 10.685 14.3733 9.93468 14.3792L9.4671 14.3828C8.9699 14.3867 8.5588 14.3867 8.1781 14.3828C7.99319 14.3837 7.80844 14.3717 7.62522 14.3468C7.22002 14.2913 6.82763 14.1654 6.46576 13.9748C5.91751 13.6839 5.4592 13.2487 5.14035 12.7163C4.8215 12.1838 4.65424 11.5743 4.65666 10.9537C4.65666 10.1343 4.65666 9.30061 4.65666 8.49459V7.73715L4.85411 7.7869C4.86687 7.79292 4.88007 7.79793 4.89361 7.80191L4.91098 7.80744ZM7.30771 16.7479C7.37169 16.7566 7.44909 16.8024 7.53084 16.851C7.57586 16.8778 7.62246 16.9051 7.67182 16.9299L7.7433 16.9655C8.2272 17.2064 8.71071 17.4475 9.19382 17.689L8.68043 18.3315L7.09406 16.7325C7.16579 16.7332 7.23741 16.7383 7.3085 16.7479H7.30771ZM11.1451 17.5267L11.3745 17.4133L12.7224 16.7435L12.7315 16.7388H12.9427L11.3445 18.3398L11.3291 18.3208C11.2106 18.1704 11.0874 18.0187 10.9666 17.8671C10.9425 17.8371 10.9192 17.8059 10.8955 17.7743C10.8718 17.7427 10.8505 17.7146 10.8268 17.6846C10.9334 17.6313 11.0408 17.5784 11.1459 17.5267H11.1451ZM12.7054 16.6646L12.7109 16.6732L12.7054 16.6646ZM16.4109 7.26562C16.833 7.25219 17.0771 7.38409 17.2449 7.71503C17.4246 8.07045 17.2899 8.49735 16.9314 8.71298C16.7884 8.79867 16.6336 8.82316 16.4109 8.82908C16.4109 8.69047 16.4109 8.55264 16.4109 8.41363V7.26562ZM3.61172 8.83145C3.41031 8.82632 3.23023 8.80697 3.07542 8.71061C2.93518 8.62457 2.82573 8.49637 2.76274 8.34437C2.69976 8.19236 2.68646 8.02433 2.72474 7.86431C2.75165 7.74641 2.80623 7.63661 2.88396 7.54398C2.96169 7.45135 3.06035 7.37854 3.17178 7.33157C3.29312 7.28282 3.42341 7.26034 3.55406 7.26562H3.60856C3.60856 7.46031 3.60856 7.65698 3.60856 7.85009V8.0511C3.60856 8.13008 3.60856 8.20907 3.60856 8.29002C3.61053 8.46852 3.60974 8.65058 3.61172 8.83145Z" fill="black"/>
</svg>
