<svg width="35" height="52" viewBox="0 0 35 52" fill="none" xmlns="http://www.w3.org/2000/svg">
<rect y="8" width="35" height="35" rx="10" fill="#D9D9D9"/>
<path d="M16.544 20.928V32H15.088V23.744L11.408 32H10.384L6.688 23.728V32H5.232V20.928H6.8L10.896 30.08L14.992 20.928H16.544ZM24.0693 32.112C23.0346 32.112 22.0906 31.872 21.2373 31.392C20.3839 30.9013 19.7066 30.224 19.2053 29.36C18.7146 28.4853 18.4693 27.504 18.4693 26.416C18.4693 25.328 18.7146 24.352 19.2053 23.488C19.7066 22.6133 20.3839 21.936 21.2373 21.456C22.0906 20.9653 23.0346 20.72 24.0693 20.72C25.1146 20.72 26.0639 20.9653 26.9173 21.456C27.7706 21.936 28.4426 22.608 28.9333 23.472C29.4239 24.336 29.6693 25.3173 29.6693 26.416C29.6693 27.5147 29.4239 28.496 28.9333 29.36C28.4426 30.224 27.7706 30.9013 26.9173 31.392C26.0639 31.872 25.1146 32.112 24.0693 32.112ZM24.0693 30.848C24.8479 30.848 25.5466 30.6667 26.1653 30.304C26.7946 29.9413 27.2853 29.424 27.6373 28.752C27.9999 28.08 28.1813 27.3013 28.1813 26.416C28.1813 25.52 27.9999 24.7413 27.6373 24.08C27.2853 23.408 26.7999 22.8907 26.1813 22.528C25.5626 22.1653 24.8586 21.984 24.0693 21.984C23.2799 21.984 22.5759 22.1653 21.9573 22.528C21.3386 22.8907 20.8479 23.408 20.4853 24.08C20.1333 24.7413 19.9573 25.52 19.9573 26.416C19.9573 27.3013 20.1333 28.08 20.4853 28.752C20.8479 29.424 21.3386 29.9413 21.9573 30.304C22.5866 30.6667 23.2906 30.848 24.0693 30.848Z" fill="black"/>
</svg>
