<svg width="21" height="21" viewBox="0 0 21 21" fill="none" xmlns="http://www.w3.org/2000/svg">
<path d="M20.7353 19.496L14.7101 13.4665C15.8979 12.042 16.6124 10.2215 16.6124 8.2332C16.6124 3.69708 12.8896 0.00878906 8.31048 0.00878906C3.73132 0.00878906 0 3.70138 0 8.2375C0 12.7736 3.72272 16.4619 8.30187 16.4619C10.2472 16.4619 12.0375 15.7948 13.4577 14.6802L19.5045 20.7269C19.8574 21.0798 20.3824 21.0798 20.7353 20.7269C21.0882 20.374 21.0882 19.8489 20.7353 19.496ZM1.76452 8.2375C1.76452 4.67402 4.69966 1.77762 8.30187 1.77762C11.9041 1.77762 14.8392 4.67402 14.8392 8.2375C14.8392 11.801 11.9041 14.6974 8.30187 14.6974C4.69966 14.6974 1.76452 11.7967 1.76452 8.2375Z" fill="#54534A"/>
</svg>
