<svg width="20" height="19" viewBox="0 0 20 19" fill="none" xmlns="http://www.w3.org/2000/svg">
<g clip-path="url(#clip0_1_301)">
<path d="M19.9967 5.36102C19.9953 5.3542 19.9932 5.34767 19.9911 5.34115C19.989 5.33462 19.9884 5.33343 19.9881 5.33254C19.9632 4.92999 19.8431 4.54109 19.6212 4.14328C19.1913 3.37378 18.5165 2.86918 17.615 2.64343C17.4037 2.59063 17.1896 2.59003 16.9819 2.58944C16.2836 2.58726 15.5853 2.58479 14.887 2.58202L14.0222 2.57876H13.908C13.908 2.48502 13.908 2.39128 13.908 2.29754C13.908 2.09849 13.908 1.89232 13.908 1.68971C13.9066 1.35772 13.8082 1.0334 13.6249 0.7566C13.4416 0.479804 13.1814 0.262607 12.8763 0.131712C12.6976 0.0549075 12.5054 0.0148554 12.3109 0.0139425H11.9549L11.4714 0.0103827C11.46 0.00950193 11.4487 0.00791676 11.4376 0.00563631L11.4103 0H11.4028H7.87837H7.86562C7.85405 0 7.84278 0.00296648 7.83121 0.00444972C7.80896 0.00771285 7.7879 0.0106793 7.76772 0.0118659C7.39941 0.031533 7.04534 0.160643 6.75082 0.382676C6.46099 0.602789 6.26965 0.911896 6.18244 1.30228C6.13977 1.50712 6.11987 1.71604 6.12311 1.92524C6.12311 2.08158 6.12311 2.23821 6.12311 2.39454V2.57787H5.61109C5.2033 2.57787 4.79541 2.57787 4.38742 2.57787C3.95877 2.57787 3.50875 2.57787 3.04924 2.58054C2.34174 2.58309 1.65728 2.83235 1.11382 3.28537C0.570364 3.7384 0.201956 4.3668 0.0720854 5.0623C0.0551765 5.15129 0.0444972 5.24295 0.0341145 5.32928C0.0284782 5.37526 0.0231385 5.42124 0.0169089 5.46692C0.0151318 5.47555 0.0128536 5.48407 0.010086 5.49244C0.00771285 5.49985 0.00563631 5.50727 0.00355977 5.51468L0 5.52952V7.1949V7.20854C0.00158212 7.22061 0.00336201 7.23277 0.00533966 7.24503C0.00861793 7.26317 0.010699 7.2815 0.0115693 7.29991C0.0115693 8.89548 0.0115693 10.4911 0.0115693 12.0866V12.6719C0.0115693 12.741 0.0115693 12.8098 0.0115693 12.8796C0.0103324 12.8877 0.00864884 12.8957 0.00652625 12.9036C0.00444972 12.9122 0.00266983 12.9211 0.000889944 12.9297L-0.000889944 12.9392V15.0377L0.000889944 15.0475L0.00622961 15.0721C0.00882578 15.0818 0.0107095 15.0917 0.0118659 15.1018V15.1071C0.0284782 15.3506 0.0456838 15.6025 0.117176 15.8487C0.455058 17.0074 1.21121 17.7473 2.36517 18.0472C2.59168 18.1003 2.82292 18.1309 3.05547 18.1382C3.06436 18.1392 3.07317 18.1407 3.08187 18.1427L3.10472 18.1474H3.11362H5.19371H5.19994L5.23168 18.143C5.24669 18.1404 5.26185 18.1387 5.27707 18.1379H14.9807H15.6497C16.0415 18.1379 16.4468 18.1359 16.8452 18.1379H16.8627C17.5571 18.1379 18.1875 17.9404 18.7369 17.5509C19.3839 17.0923 19.7918 16.469 19.9499 15.698C19.963 15.6284 19.9723 15.5581 19.9778 15.4874C19.9807 15.4577 19.9837 15.4248 19.9872 15.3937C19.9899 15.3717 19.9932 15.3497 19.9961 15.3278L20.0003 15.2981V5.37496L19.9967 5.36102ZM19.0531 14.8594C19.0531 14.9045 19.0531 14.9484 19.0552 14.995C19.0573 15.0789 19.059 15.1581 19.0552 15.2373C19.0303 15.6758 18.8683 16.0789 18.574 16.4361C18.266 16.8151 17.8278 17.0657 17.345 17.1391C17.2019 17.1588 17.0575 17.1681 16.9131 17.167H16.8707C16.5414 17.1729 16.2059 17.1738 15.8816 17.1744H15.8543L11.6678 17.1845L10.2486 17.1878V17.1821H4.56304C4.40819 17.1821 4.25304 17.1821 4.09819 17.1821C3.78879 17.1821 3.469 17.1848 3.15515 17.1821C2.7523 17.1768 2.40819 17.0973 2.10264 16.9389C1.47968 16.6158 1.11006 16.1083 1.00326 15.4284C0.980539 15.2811 0.968838 15.1324 0.968259 14.9834C0.965292 14.5031 0.965589 14.0145 0.966182 13.542V11.0273L0.967962 7.57312C0.967962 6.95966 0.967962 6.40581 0.964106 5.84248C0.964106 5.61762 0.965589 5.39751 1.01602 5.18837C1.21893 4.34322 1.7253 3.81904 2.56333 3.58647C2.71553 3.54907 2.87213 3.5327 3.02877 3.53782C3.1854 3.53782 3.34213 3.53782 3.49896 3.53782H5.62207H10.8816H14.8469C15.2227 3.53782 15.5978 3.53703 15.9724 3.53545H15.9932C16.2922 3.53545 16.5912 3.53436 16.8902 3.53219C17.4036 3.52384 17.9036 3.6959 18.3032 4.01839C18.6728 4.31296 18.9113 4.71611 19.0119 5.21596C19.0638 5.47375 19.0673 5.73242 19.0638 5.9733C19.0638 6.04183 19.0614 6.11065 19.0599 6.17918C19.057 6.33373 19.054 6.49333 19.054 6.65085C19.054 9.22179 19.054 11.7921 19.054 14.3619L19.0531 14.8594ZM8.50133 2.57194L8.50578 2.53367C8.5132 2.47434 8.52091 2.41086 8.52536 2.34797C8.52863 2.30199 8.5396 2.28864 8.58232 2.27321C8.67222 2.24202 8.76661 2.22569 8.86176 2.22486C9.32434 2.22486 9.78701 2.22486 10.2498 2.22486H11.0243C11.1133 2.22486 11.2168 2.22486 11.3186 2.2299C11.3507 2.23019 11.3824 2.23739 11.4114 2.251C11.4405 2.26462 11.4663 2.28434 11.4871 2.30881C11.4995 2.32183 11.5095 2.33688 11.5168 2.35331C11.5212 2.42984 11.5206 2.50786 11.5197 2.59063H11.0392C10.6565 2.59063 10.2739 2.58964 9.89143 2.58766C9.41442 2.58588 8.93118 2.58262 8.5049 2.57965H8.49985L8.50133 2.57194ZM12.9511 2.57846H12.4263C12.4263 2.50934 12.4263 2.44379 12.4263 2.37734C12.4201 2.09463 12.3319 1.8588 12.164 1.67665C11.9555 1.44426 11.6643 1.30274 11.3527 1.28241C11.2305 1.27292 11.1074 1.27292 10.9884 1.27262H10.9327C10.2774 1.27084 9.70217 1.27025 9.17443 1.27054H9.11658C8.96351 1.27054 8.8054 1.27054 8.64907 1.28004C8.28775 1.30199 7.98457 1.469 7.74696 1.77573C7.65085 1.90033 7.59686 2.05221 7.57728 2.25334C7.57223 2.30495 7.56956 2.35627 7.56689 2.40611C7.56511 2.43578 7.56363 2.46544 7.56155 2.49748C7.55948 2.52952 7.55651 2.55473 7.55266 2.57728C7.38297 2.57728 7.21309 2.57728 7.04301 2.57728H7.03945V2.5749L7.04123 2.33521C7.04242 2.14714 7.044 1.95926 7.04598 1.77158C7.0442 1.6641 7.06014 1.55706 7.09315 1.45476C7.13658 1.32928 7.21132 1.21697 7.31029 1.12845C7.40164 1.04362 7.52009 0.993904 7.64462 0.988134L7.79828 0.980718C7.99377 0.971225 8.19579 0.961436 8.39336 0.960842C9.50727 0.957876 10.5797 0.958766 11.8662 0.960842C12.0095 0.958554 12.1528 0.963802 12.2955 0.976565C12.6734 1.0178 12.9338 1.3011 12.9427 1.68229C12.9475 1.8941 12.9484 2.10976 12.949 2.3183C12.949 2.40453 12.949 2.49085 12.949 2.57728L12.9511 2.57846Z" fill="black"/>
<path d="M15.1643 11.6178C14.9318 11.3778 14.6918 11.1334 14.4307 10.8699C14.3723 10.8098 14.2996 10.7655 14.2194 10.741C14.1392 10.7166 14.0541 10.7129 13.9721 10.7302C13.9072 10.7419 13.8431 10.7578 13.7802 10.7777L13.6348 10.8231C13.3397 10.915 13.0341 11.0102 12.7348 11.1078C12.6553 11.1339 12.612 11.1233 12.5568 11.0639C12.2373 10.7225 11.9104 10.3778 11.5942 10.0444C11.4815 9.9257 11.3686 9.80704 11.2557 9.68838L11.1442 9.56972L11.1501 9.56646L14.5672 7.66109C14.6428 7.62297 14.7101 7.57035 14.7654 7.50624C14.8174 7.4453 14.8506 7.37061 14.8612 7.29119C14.8717 7.21176 14.859 7.13099 14.8247 7.0586C14.7962 6.99648 14.7578 6.93938 14.7111 6.88951C14.4975 6.66139 14.2791 6.43059 14.0682 6.20722L13.7778 5.90019C13.6325 5.74623 13.4453 5.69847 13.2367 5.76165L12.6138 5.95003C12.1044 6.10428 11.5776 6.26358 11.0599 6.42199C10.3729 6.63202 9.64847 6.85628 8.90626 7.08826C8.86058 7.1025 8.84515 7.09835 8.81341 7.06334C8.67102 6.90523 8.52329 6.7483 8.38 6.59672L8.31326 6.52641L7.77544 5.95685L7.35004 5.50713C7.19507 5.34024 6.99927 5.21663 6.78196 5.14848C6.54233 5.07335 6.28887 5.05307 6.04034 5.08915C5.32305 5.19239 4.75467 5.80348 4.68852 6.54273C4.64551 7.02241 4.79709 7.43267 5.13853 7.76165C5.47998 8.09064 5.82824 8.42051 6.16553 8.74059L6.593 9.14641L6.64165 9.19179L6.69653 9.24341C6.70514 9.24936 6.7114 9.25813 6.71422 9.26821C6.71703 9.27829 6.71623 9.28904 6.71195 9.29859C6.69772 9.34279 6.68407 9.38758 6.67013 9.43178L6.65856 9.46916C6.26906 10.7175 5.89528 11.9927 5.53367 13.2262L5.39395 13.7023C5.34203 13.8803 5.3803 14.0355 5.50816 14.1636C5.6019 14.2574 5.69554 14.3513 5.78908 14.4454C5.99852 14.6558 6.21477 14.8729 6.42895 15.0856C6.4798 15.1358 6.53741 15.1786 6.60012 15.2129C6.82913 15.3377 7.06645 15.2746 7.20498 15.0515C7.27885 14.9328 7.34352 14.8225 7.40255 14.7163C7.81786 13.9689 8.23317 13.2215 8.64847 12.4739L9.16138 11.5504L9.5043 11.8744C9.90418 12.2527 10.3045 12.6306 10.7051 13.0082C10.7274 13.0292 10.7321 13.0378 10.7212 13.074C10.6672 13.252 10.6138 13.4305 10.561 13.6095C10.5001 13.8139 10.4373 14.0248 10.3741 14.2324C10.2981 14.4813 10.3497 14.6964 10.5277 14.8714C10.7532 15.0927 10.9778 15.3164 11.1961 15.5395C11.293 15.6365 11.4244 15.6911 11.5616 15.6913C11.5847 15.6913 11.6078 15.6896 11.6307 15.6863C11.7063 15.6751 11.7781 15.6458 11.8401 15.601C11.902 15.5562 11.9523 15.4971 11.9867 15.4288C12.0727 15.2683 12.1646 15.1064 12.2507 14.9497C12.3177 14.8296 12.3871 14.7056 12.4542 14.5828C12.6185 14.2814 12.7953 13.9533 12.9944 13.5795C13.0399 13.4856 13.1155 13.4096 13.2091 13.3636C13.348 13.2974 13.4838 13.2268 13.6132 13.1535C14.092 12.8827 14.5776 12.6047 15.0472 12.3357C15.0937 12.3098 15.137 12.2785 15.1762 12.2425C15.239 12.1848 15.2819 12.1087 15.2989 12.0251C15.3159 11.9415 15.306 11.8547 15.2708 11.7771C15.2449 11.7182 15.2088 11.6643 15.1643 11.6178ZM11.3672 14.2579C11.3963 14.1624 11.4252 14.0669 11.4539 13.9714C11.5384 13.6908 11.6259 13.4003 11.7158 13.1164C11.798 12.8575 11.7392 12.6323 11.5417 12.4472L11.0564 11.9933C10.5337 11.5041 10.0108 11.0152 9.48769 10.5267C9.4373 10.4799 9.38378 10.4366 9.3275 10.3971C9.27666 10.3572 9.21763 10.329 9.15464 10.3145C9.09164 10.3001 9.02623 10.2997 8.96308 10.3135C8.89994 10.3273 8.84061 10.3549 8.78936 10.3942C8.7381 10.4336 8.69617 10.4838 8.66657 10.5412C8.6013 10.6543 8.53693 10.77 8.47464 10.8818L8.39513 11.0254L8.00949 11.7136C7.62207 12.4058 7.23445 13.0969 6.84663 13.7869C6.80777 13.8563 6.76772 13.9242 6.7256 13.9945L6.67161 13.9382C6.59418 13.8575 6.51409 13.7738 6.43014 13.6952C6.38772 13.6555 6.38119 13.6308 6.40047 13.5745C6.61703 12.8848 6.82972 12.1956 6.9908 11.6721C7.09107 11.3458 7.19104 11.0194 7.29071 10.6931C7.43044 10.2363 7.5749 9.76403 7.71878 9.29888C7.79413 9.05533 7.7348 8.84027 7.54257 8.65961C7.01987 8.16836 6.47879 7.65634 5.88876 7.0942C5.82965 7.03768 5.77747 6.97435 5.73331 6.90553C5.69893 6.85147 5.6758 6.79103 5.6653 6.72783C5.6548 6.66463 5.65715 6.59996 5.6722 6.53768C5.73153 6.24549 5.91456 6.06305 6.2035 6.00906C6.39958 5.97287 6.566 6.0227 6.69861 6.15738C6.84278 6.30393 6.98695 6.4564 7.12637 6.60235L7.27737 6.76195L7.52062 7.01796C7.7962 7.30749 8.08098 7.6071 8.35954 7.90315C8.51201 8.06512 8.69712 8.11496 8.90982 8.05148C10.0543 7.70737 11.1991 7.36385 12.3444 7.02092L13.1996 6.76462C13.2145 6.76017 13.2293 6.75602 13.2444 6.75216C13.2667 6.74593 13.2886 6.74 13.3103 6.73288H13.3156C13.3188 6.73433 13.3217 6.73646 13.3239 6.73911L13.3269 6.74207C13.4373 6.85035 13.5509 6.96189 13.6621 7.07313L12.9861 7.45225C12.0763 7.96209 11.1672 8.47232 10.2587 8.98295C10.1974 9.01595 10.1401 9.05575 10.0878 9.10161C10.012 9.16673 9.96102 9.25604 9.9435 9.35443C9.92599 9.45282 9.94301 9.55423 9.99169 9.64151C10.029 9.71008 10.0752 9.77342 10.129 9.82988C10.3047 10.0183 10.485 10.2087 10.6592 10.3935L11.1451 10.9073C11.4828 11.2645 11.8204 11.6217 12.1578 11.9791C12.2278 12.0601 12.3238 12.1143 12.4292 12.1325C12.5036 12.141 12.579 12.1325 12.6497 12.1078L13.8238 11.7474L13.8469 11.74C13.8624 11.735 13.8766 11.7302 13.8893 11.7275C13.9104 11.721 13.933 11.7208 13.9542 11.7272C13.9754 11.7336 13.9941 11.7463 14.008 11.7634C14.0306 11.7895 14.0543 11.8139 14.0774 11.837L13.8721 11.9515L13.5325 12.1411C13.3149 12.2621 13.0974 12.3828 12.8799 12.5033C12.8142 12.5415 12.7461 12.5755 12.6761 12.605C12.4944 12.6762 12.3457 12.8122 12.2587 12.9868C12.1623 13.1669 12.067 13.3428 11.9783 13.5056C11.8087 13.8179 11.6388 14.1299 11.4687 14.4416C11.4292 14.4036 11.3913 14.3662 11.3554 14.3283C11.3542 14.3233 11.3535 14.3182 11.3533 14.3131C11.3559 14.2939 11.3608 14.2751 11.3678 14.2571L11.3672 14.2579Z" fill="black"/>
</g>
<defs>
<clipPath id="clip0_1_301">
<rect width="20" height="18.1489" fill="white"/>
</clipPath>
</defs>
</svg>
