<svg width="715" height="486" viewBox="0 0 715 486" fill="none" xmlns="http://www.w3.org/2000/svg">
<g clip-path="url(#clip0_1_58)" filter="url(#filter0_d_1_58)">
<path d="M677.042 398.304C674.376 396.132 670.875 395.316 667.493 394.66C643.892 390.076 619.673 390.076 595.631 390.076L50.1394 390.131L57.7986 393.122C48.0336 394.342 37.9044 395.689 29.6079 400.971C21.3114 406.252 15.4294 416.688 18.5941 425.989C20.0705 430.334 23.2925 433.889 26.9064 436.725C50.7984 455.516 85.7083 444.327 115.619 449.852C134.207 453.286 150.822 463.31 168.602 469.717C194.448 479.029 223.06 480.542 249.746 474.009C265.302 470.199 280.124 463.756 295.721 460.12C315.473 455.516 335.973 455.52 356.257 455.55L458.317 455.692C476.954 455.718 495.631 455.745 514.166 457.706C545.404 461.009 576.36 469.792 607.693 467.54C639.027 465.289 672.431 448.143 680.65 417.885C682.487 411.101 682.493 402.752 677.042 398.304Z" fill="#D1DEF2"/>
<path d="M680.323 419.712L75.4465 419.216C75.4465 419.216 -30.5338 313.453 45.7319 221.53C121.998 129.606 152.302 278.287 171.434 138.814C194.277 -27.8385 463.229 -43.6272 470.512 87.1006C490.074 437.92 797.199 87.5983 680.323 419.712Z" fill="#E6EBF4"/>
<path d="M51.1705 377.961H52.9023L52.6292 389.614H51.1705V377.961Z" fill="#5CA88D"/>
<path d="M67.4251 371.967C68.0782 371.4 85.8924 355.212 83.7945 334.899C81.6966 314.585 64.6979 309.559 69.525 285.893C74.3521 262.228 69.525 245.892 54.8359 245.685C40.1468 245.477 33.4316 259.708 38.8861 285.056C44.3406 310.404 20.9671 320.307 22.0971 338.878C23.3954 360.284 40.3546 395.423 67.4251 371.967Z" fill="#7AC094"/>
<path opacity="0.2" d="M44.6612 248.859C44.9145 249.987 45.5795 251.1 46.668 251.586C47.6715 252.035 48.8253 251.944 49.8802 251.758C51.8336 251.416 53.8068 250.686 55.8175 250.948C56.8269 251.081 57.7967 251.523 58.6932 251.97C59.6886 252.463 60.6331 253.052 61.5135 253.729C63.2217 255.014 64.6381 256.645 65.6696 258.515C66.8175 260.654 67.2153 263.012 67.2846 265.416C67.3618 268.181 67.1045 270.97 67.6072 273.711C67.9417 275.54 68.5077 277.545 69.7843 278.949C70.0249 279.207 70.2968 279.435 70.5937 279.626C73.3823 259.392 68.1831 245.874 54.83 245.685C50.7985 245.628 47.3805 246.672 44.6375 248.726C44.6513 248.768 44.6513 248.807 44.6612 248.859Z" fill="#F2FAFF"/>
<path opacity="0.15" d="M55.4574 330.469C53.4169 326.716 53.3892 322.061 54.5114 318.026C55.1394 315.873 56.0022 313.795 57.0842 311.83C57.5117 311.04 58.0382 310.279 58.4261 309.46C58.7071 308.867 58.6517 308.356 58.4261 307.755C58.0302 306.716 57.4741 305.727 57.0407 304.706C56.6073 303.685 56.1699 302.638 55.8077 301.577C55.0497 299.369 54.7449 297.135 54.5668 294.819C54.3926 292.531 54.4757 290.165 55.208 287.973C55.8611 286.016 57.2742 284.436 57.9788 282.52C56.8148 281.807 55.7907 280.888 54.9567 279.808C54.0034 278.558 53.2275 277.182 52.651 275.72C52.651 278.961 52.6464 282.203 52.6371 285.443C52.6041 298.36 52.5646 311.277 52.5184 324.194C52.4907 335.705 52.4821 347.215 52.4926 358.726C52.7321 357.898 52.9874 357.075 53.2843 356.263C55.8809 348.967 60.2113 342.489 64.409 336.03C60.6368 336.167 57.2485 333.757 55.4574 330.469Z" fill="#202234"/>
<path opacity="0.15" d="M57.6225 378.202C55.5622 378.224 53.4802 377.878 51.6317 376.94C49.6802 375.952 48.1464 374.315 47.0678 372.431C46.423 371.309 45.9871 370.08 45.7814 368.803C45.5379 367.388 45.2846 366.055 44.3524 364.914C42.7295 362.927 39.9588 362.65 37.7382 361.647C35.6561 360.707 34.059 358.919 32.824 357.039C31.6044 355.133 30.6878 353.049 30.1067 350.863C28.8341 346.269 28.6956 341.361 29.2853 336.643C29.8296 332.284 30.9814 327.964 33.1486 324.117C35.7314 319.533 39.1256 315.44 41.5421 310.761C42.7548 308.476 43.5838 306.007 43.9962 303.454C44.4553 300.404 44.1684 297.331 43.4717 294.341C42.7018 291.04 41.4787 287.872 40.222 284.732C39.024 281.829 38.0713 278.832 37.374 275.771C37.7129 278.886 38.2176 281.981 38.8861 285.042C44.3425 310.382 20.9671 320.293 22.0971 338.865C23.2351 357.561 36.3132 386.726 57.6403 378.188L57.6225 378.202Z" fill="#202234"/>
<path d="M71.2586 330.401C71.2382 330.381 71.2139 330.364 71.187 330.353C71.1602 330.342 71.1314 330.336 71.1023 330.336C71.0732 330.336 71.0444 330.342 71.0176 330.353C70.9907 330.364 70.9664 330.381 70.9459 330.401L52.3421 348.967V317.394L62.7128 306.462C62.7488 306.418 62.767 306.363 62.7637 306.307C62.7605 306.251 62.736 306.198 62.6952 306.16C62.6544 306.121 62.6004 306.099 62.5441 306.099C62.4878 306.098 62.4335 306.119 62.3922 306.157L52.3421 316.75V288.336L59.8767 280.705C59.9132 280.662 59.9322 280.608 59.9299 280.552C59.9276 280.496 59.9041 280.443 59.8642 280.403C59.8243 280.364 59.7709 280.341 59.7148 280.34C59.6587 280.338 59.6041 280.358 59.562 280.395L52.3421 287.702V263.277C52.3451 263.246 52.3415 263.215 52.3318 263.186C52.322 263.157 52.3062 263.13 52.2854 263.107C52.2647 263.084 52.2393 263.066 52.2111 263.054C52.1829 263.041 52.1523 263.035 52.1215 263.035C52.0906 263.035 52.0601 263.041 52.0318 263.054C52.0036 263.066 51.9783 263.084 51.9575 263.107C51.9367 263.13 51.921 263.157 51.9112 263.186C51.9014 263.215 51.8979 263.246 51.9008 263.277V297.355L46.1613 292.48C46.1392 292.461 46.1137 292.447 46.0861 292.438C46.0585 292.43 46.0295 292.426 46.0006 292.429C45.9718 292.431 45.9437 292.439 45.9179 292.452C45.8922 292.466 45.8693 292.484 45.8506 292.506C45.8319 292.528 45.8177 292.553 45.8089 292.581C45.8 292.608 45.7967 292.637 45.7991 292.666C45.8015 292.695 45.8096 292.723 45.8228 292.749C45.8361 292.774 45.8542 292.797 45.8763 292.816L51.8949 297.931V330.034L40.5386 318.701C40.4963 318.664 40.4416 318.645 40.3855 318.647C40.3294 318.649 40.2762 318.672 40.2366 318.712C40.1969 318.751 40.1737 318.804 40.1718 318.86C40.1698 318.916 40.1891 318.971 40.2259 319.013L51.9028 330.656V349.512V379.097C51.908 379.152 51.9335 379.202 51.9743 379.239C52.0151 379.277 52.0683 379.297 52.1235 379.297C52.1786 379.297 52.2318 379.277 52.2726 379.239C52.3134 379.202 52.3389 379.152 52.3441 379.097V349.587L71.2666 330.704C71.3053 330.662 71.3262 330.607 71.3247 330.551C71.3232 330.494 71.2995 330.441 71.2586 330.401Z" fill="#B8DEBF"/>
<path d="M487.915 390.113H489.648L489.375 401.766H487.915V390.113Z" fill="#5CA88D"/>
<path d="M504.171 384.119C504.824 383.552 522.638 367.365 520.541 347.051C518.443 326.737 501.444 321.711 506.271 298.046C511.098 274.38 506.271 258.045 491.582 257.837C476.893 257.63 470.178 271.86 475.632 297.208C481.087 322.556 457.713 332.459 458.843 351.031C460.146 372.437 477.101 407.573 504.171 384.119Z" fill="#7AC094"/>
<path opacity="0.2" d="M481.407 261.003C481.661 262.131 482.326 263.245 483.414 263.731C484.418 264.179 485.571 264.088 486.626 263.903C488.58 263.561 490.553 262.83 492.564 263.093C493.573 263.225 494.543 263.668 495.439 264.114C496.435 264.607 497.379 265.197 498.26 265.874C499.968 267.159 501.384 268.789 502.416 270.659C503.564 272.798 503.961 275.157 504.031 277.56C504.108 280.325 503.851 283.114 504.353 285.856C504.688 287.684 505.254 289.689 506.53 291.093C506.771 291.352 507.043 291.579 507.34 291.771C510.128 271.536 504.929 258.019 491.576 257.829C487.545 257.772 484.127 258.817 481.384 260.871C481.395 260.92 481.397 260.96 481.407 261.003Z" fill="#F2FAFF"/>
<path opacity="0.15" d="M492.203 342.621C490.163 338.869 490.135 334.213 491.257 330.178C491.885 328.025 492.748 325.948 493.83 323.982C494.258 323.192 494.784 322.432 495.172 321.612C495.453 321.02 495.398 320.508 495.172 319.908C494.776 318.869 494.22 317.879 493.787 316.858C493.353 315.837 492.916 314.79 492.554 313.73C491.796 311.522 491.491 309.288 491.313 306.971C491.139 304.684 491.222 302.318 491.954 300.126C492.607 298.168 494.02 296.588 494.725 294.672C493.561 293.959 492.537 293.04 491.703 291.961C490.746 290.706 489.968 289.324 489.391 287.856C489.391 291.098 489.386 294.339 489.377 297.58C489.343 310.497 489.303 323.414 489.258 336.331C489.231 347.841 489.222 359.352 489.233 370.863C489.472 370.035 489.728 369.211 490.024 368.4C492.621 361.104 496.951 354.626 501.149 348.167C497.383 348.319 493.995 345.91 492.203 342.621Z" fill="#202234"/>
<path opacity="0.15" d="M494.369 390.354C492.308 390.376 490.226 390.03 488.378 389.092C486.426 388.105 484.893 386.467 483.814 384.583C483.169 383.461 482.733 382.232 482.528 380.955C482.284 379.541 482.031 378.208 481.099 377.066C479.476 375.079 476.705 374.803 474.484 373.799C472.402 372.859 470.805 371.072 469.57 369.191C468.351 367.285 467.434 365.202 466.853 363.015C465.58 358.421 465.442 353.513 466.031 348.795C466.576 344.436 467.728 340.116 469.895 336.269C472.477 331.685 475.872 327.593 478.288 322.914C479.501 320.628 480.33 318.159 480.742 315.606C481.201 312.556 480.914 309.483 480.218 306.493C479.448 303.193 478.225 300.025 476.966 296.884C475.768 293.982 474.815 290.984 474.118 287.923C474.457 291.038 474.962 294.133 475.63 297.194C481.087 322.534 457.711 332.445 458.841 351.017C459.979 369.713 473.057 398.879 494.384 390.34L494.369 390.354Z" fill="#202234"/>
<path d="M508.005 342.554C507.984 342.533 507.96 342.517 507.933 342.506C507.906 342.494 507.878 342.489 507.848 342.489C507.819 342.489 507.791 342.494 507.764 342.506C507.737 342.517 507.713 342.533 507.692 342.554L489.088 361.12V329.546L499.459 318.614C499.495 318.571 499.513 318.516 499.51 318.46C499.507 318.404 499.482 318.351 499.441 318.312C499.401 318.274 499.347 318.252 499.29 318.251C499.234 318.251 499.18 318.272 499.138 318.31L489.084 328.902V300.489L496.619 292.857C496.642 292.837 496.66 292.813 496.673 292.785C496.686 292.758 496.693 292.728 496.694 292.698C496.695 292.667 496.69 292.637 496.678 292.609C496.667 292.581 496.65 292.555 496.628 292.534C496.607 292.512 496.581 292.496 496.552 292.485C496.524 292.474 496.494 292.469 496.463 292.47C496.433 292.471 496.403 292.479 496.376 292.492C496.348 292.505 496.324 292.524 496.304 292.547L489.084 299.855V275.423C489.084 275.365 489.061 275.309 489.02 275.268C488.979 275.227 488.923 275.204 488.865 275.204C488.806 275.204 488.751 275.227 488.709 275.268C488.668 275.309 488.645 275.365 488.645 275.423V309.493L482.906 304.619C482.883 304.6 482.858 304.586 482.83 304.577C482.803 304.568 482.774 304.565 482.745 304.567C482.716 304.57 482.688 304.578 482.662 304.591C482.636 304.604 482.614 304.622 482.595 304.644C482.576 304.666 482.562 304.692 482.553 304.72C482.544 304.747 482.541 304.776 482.543 304.805C482.546 304.834 482.554 304.862 482.567 304.887C482.58 304.913 482.598 304.936 482.621 304.955L488.639 310.072V342.165L477.283 330.832C477.263 330.809 477.238 330.79 477.211 330.777C477.184 330.764 477.154 330.757 477.123 330.756C477.093 330.755 477.063 330.76 477.034 330.771C477.006 330.782 476.98 330.799 476.959 330.821C476.937 330.842 476.92 330.868 476.909 330.896C476.898 330.924 476.893 330.954 476.894 330.985C476.895 331.015 476.902 331.045 476.915 331.072C476.929 331.1 476.947 331.124 476.97 331.144L488.647 342.787V361.643V391.227C488.647 391.286 488.67 391.341 488.711 391.382C488.753 391.424 488.808 391.447 488.867 391.447C488.925 391.447 488.981 391.424 489.022 391.382C489.063 391.341 489.086 391.286 489.086 391.227V361.742L508.009 342.858C508.029 342.838 508.045 342.814 508.055 342.788C508.066 342.762 508.071 342.733 508.071 342.705C508.07 342.677 508.064 342.649 508.053 342.623C508.042 342.597 508.025 342.574 508.005 342.554Z" fill="#B8DEBF"/>
<path d="M453.981 383.995H451.519L451.908 400.542H453.981V383.995Z" fill="#5CA88D"/>
<path d="M430.898 375.48C429.97 374.677 404.673 351.689 407.653 322.841C410.634 293.993 434.767 286.857 427.917 253.251C421.068 219.646 427.917 196.448 448.777 196.152C469.637 195.856 479.175 216.077 471.427 252.062C463.678 288.048 496.872 302.12 495.267 328.497C493.415 358.892 469.339 408.79 430.898 375.48Z" fill="#7AC094"/>
<path opacity="0.2" d="M463.223 200.649C462.863 202.249 461.919 203.831 460.373 204.522C458.948 205.158 457.307 205.03 455.821 204.767C453.05 204.281 450.244 203.243 447.392 203.616C445.957 203.813 444.594 204.434 443.309 205.068C441.896 205.768 440.554 206.605 439.303 207.566C436.877 209.39 434.866 211.706 433.402 214.362C431.771 217.398 431.207 220.748 431.11 224.163C430.999 228.113 431.365 232.049 430.651 235.952C430.178 238.549 429.372 241.395 427.549 243.392C427.208 243.759 426.821 244.082 426.399 244.354C422.441 215.62 429.823 196.423 448.785 196.162C454.511 196.079 459.366 197.568 463.259 200.481C463.237 200.533 463.235 200.588 463.223 200.649Z" fill="#F2FAFF"/>
<path opacity="0.15" d="M447.889 316.552C450.786 311.219 450.824 304.611 449.231 298.891C448.376 295.825 447.069 292.894 445.567 290.092C444.962 288.962 444.213 287.892 443.661 286.734C443.265 285.899 443.343 285.166 443.661 284.315C444.219 282.841 445.013 281.435 445.64 279.983C446.268 278.532 446.875 277.047 447.392 275.542C448.467 272.407 448.902 269.235 449.153 265.943C449.401 262.696 449.282 259.336 448.243 256.221C447.317 253.442 445.31 251.197 444.297 248.479C445.949 247.466 447.403 246.161 448.587 244.628C449.947 242.846 451.052 240.884 451.871 238.799C451.879 243.408 451.885 248.01 451.891 252.607C451.938 270.949 451.994 289.292 452.059 307.636C452.098 323.982 452.11 340.328 452.094 356.673C451.754 355.498 451.39 354.329 450.98 353.176C447.293 342.814 441.142 333.622 435.185 324.444C440.536 324.644 445.346 321.223 447.889 316.552Z" fill="#202234"/>
<path opacity="0.15" d="M444.815 384.337C447.742 384.368 450.697 383.878 453.325 382.545C456.096 381.137 458.273 378.818 459.807 376.142C460.724 374.549 461.342 372.803 461.632 370.989C461.978 368.98 462.336 367.086 463.66 365.459C465.964 362.636 469.901 362.245 473.053 360.819C476.01 359.484 478.278 356.946 480.032 354.276C481.785 351.606 483.036 348.586 483.889 345.505C485.698 338.987 485.892 332.009 485.057 325.32C484.283 319.13 482.648 312.995 479.571 307.532C475.903 301.014 471.082 295.212 467.65 288.571C465.966 285.313 464.713 281.84 464.167 278.204C463.516 273.873 463.922 269.514 464.911 265.262C466.004 260.575 467.739 256.076 469.527 251.618C471.193 247.47 472.618 243.265 473.57 238.893C473.088 243.315 472.371 247.709 471.423 252.056C463.674 288.04 496.868 302.114 495.263 328.492C493.646 355.04 475.076 396.46 444.795 384.335C444.802 384.336 444.809 384.337 444.815 384.337Z" fill="#202234"/>
<path d="M425.453 316.457C425.482 316.428 425.517 316.405 425.555 316.389C425.593 316.374 425.634 316.365 425.675 316.365C425.716 316.365 425.757 316.374 425.795 316.389C425.833 316.405 425.868 316.428 425.897 316.457L452.326 342.831V297.996L437.599 282.472C437.542 282.412 437.511 282.332 437.513 282.249C437.516 282.166 437.551 282.087 437.611 282.03C437.671 281.973 437.752 281.942 437.835 281.944C437.918 281.947 437.997 281.982 438.054 282.042L452.326 297.084V256.725L441.627 245.896C441.568 245.837 441.536 245.757 441.537 245.674C441.538 245.591 441.571 245.512 441.631 245.454C441.69 245.396 441.77 245.363 441.853 245.364C441.936 245.365 442.016 245.399 442.074 245.458L452.328 255.845V221.143C452.328 221.102 452.336 221.061 452.352 221.023C452.367 220.985 452.39 220.951 452.419 220.922C452.449 220.893 452.483 220.87 452.521 220.854C452.559 220.839 452.6 220.831 452.641 220.831C452.682 220.831 452.722 220.839 452.76 220.854C452.798 220.87 452.833 220.893 452.862 220.922C452.891 220.951 452.914 220.985 452.93 221.023C452.945 221.061 452.953 221.102 452.953 221.143V269.532L461.092 262.619C461.123 262.592 461.159 262.572 461.198 262.56C461.237 262.547 461.279 262.542 461.32 262.546C461.361 262.549 461.4 262.56 461.437 262.579C461.474 262.598 461.506 262.623 461.533 262.655C461.559 262.686 461.58 262.722 461.592 262.761C461.605 262.8 461.61 262.841 461.606 262.882C461.603 262.923 461.592 262.963 461.573 262.999C461.554 263.036 461.529 263.068 461.497 263.095L452.951 270.361V315.936L469.077 299.843C469.136 299.785 469.216 299.752 469.299 299.752C469.382 299.752 469.462 299.785 469.521 299.843C469.579 299.902 469.612 299.981 469.612 300.064C469.612 300.147 469.579 300.227 469.521 300.286L452.951 316.801V343.579V385.591C452.951 385.674 452.918 385.753 452.86 385.811C452.801 385.87 452.722 385.903 452.639 385.903C452.556 385.903 452.476 385.87 452.418 385.811C452.359 385.753 452.326 385.674 452.326 385.591V343.715L425.455 316.9C425.426 316.871 425.402 316.837 425.386 316.799C425.37 316.761 425.362 316.72 425.361 316.679C425.361 316.638 425.369 316.597 425.385 316.559C425.401 316.521 425.424 316.486 425.453 316.457Z" fill="#B8DEBF"/>
<path d="M93.9495 372.514H96.5105L96.1067 389.728H93.9495V372.514Z" fill="#5CA88D"/>
<path d="M117.966 363.658C118.932 362.82 145.248 338.906 142.143 308.901C139.038 278.896 113.935 271.459 121.065 236.497C128.196 201.534 121.065 177.403 99.3643 177.095C77.6632 176.787 67.7418 197.833 75.8127 235.26C83.8836 272.688 49.3221 287.339 51.0004 314.775C52.926 346.397 77.9719 398.308 117.966 363.658Z" fill="#7AC094"/>
<path opacity="0.2" d="M84.3348 181.772C84.7108 183.437 85.6925 185.084 87.3035 185.801C88.7859 186.462 90.4899 186.328 92.0534 186.055C94.939 185.55 97.8562 184.475 100.823 184.859C102.315 185.056 103.734 185.708 105.072 186.37C106.543 187.098 107.938 187.97 109.238 188.971C111.73 190.883 113.889 193.268 115.373 196.041C117.07 199.202 117.657 202.684 117.748 206.235C117.865 210.333 117.483 214.439 118.225 218.5C118.718 221.202 119.555 224.162 121.451 226.24C121.805 226.621 122.204 226.957 122.639 227.242C126.759 197.349 119.076 177.377 99.3485 177.097C93.3933 177.012 88.3425 178.56 84.2913 181.59C84.319 181.651 84.3209 181.706 84.3348 181.772Z" fill="#F2FAFF"/>
<path opacity="0.15" d="M100.287 302.349C97.2704 296.819 97.2328 289.928 98.8893 283.981C99.778 280.791 101.138 277.742 102.699 274.829C103.329 273.644 104.108 272.538 104.678 271.333C105.092 270.464 105.011 269.701 104.678 268.817C104.096 267.282 103.271 265.82 102.62 264.311C101.969 262.803 101.336 261.256 100.797 259.69C99.679 256.429 99.2278 253.129 98.9665 249.704C98.7092 246.325 98.8319 242.829 99.9125 239.59C100.876 236.698 102.964 234.364 104.017 231.535C102.298 230.481 100.785 229.123 99.5543 227.528C98.1398 225.673 96.9895 223.632 96.1364 221.462C96.1284 226.25 96.1212 231.038 96.1146 235.827C96.0658 254.91 96.0077 273.993 95.9404 293.076C95.8982 310.082 95.8857 327.086 95.9028 344.09C96.2571 342.868 96.6351 341.651 97.0626 340.452C100.9 329.672 107.297 320.109 113.489 310.564C107.936 310.769 102.931 307.21 100.287 302.349Z" fill="#202234"/>
<path opacity="0.15" d="M103.483 372.869C100.439 372.903 97.3634 372.393 94.6322 371.004C91.7486 369.541 89.4865 367.125 87.8893 364.343C86.9369 362.685 86.2932 360.869 85.9893 358.982C85.6311 356.893 85.2551 354.923 83.8796 353.239C81.4829 350.302 77.3881 349.895 74.1086 348.412C71.0331 347.029 68.674 344.383 66.8492 341.604C65.0244 338.825 63.7242 335.678 62.8355 332.479C60.9534 325.692 60.7515 318.44 61.6203 311.48C62.4258 305.039 64.1259 298.66 67.3262 292.975C71.1399 286.203 76.1551 280.157 79.7274 273.245C81.4789 269.855 82.7832 266.241 83.3512 262.461C84.03 257.956 83.6065 253.415 82.5773 248.997C81.4413 244.12 79.6344 239.439 77.774 234.8C76.0422 230.476 74.5579 226.11 73.5683 221.567C74.0704 226.168 74.8163 230.74 75.8028 235.262C83.8638 272.697 49.33 287.341 51.0003 314.776C52.6826 342.396 72.0009 385.484 103.511 372.871L103.483 372.869Z" fill="#202234"/>
<path d="M123.628 302.25C123.598 302.22 123.562 302.196 123.523 302.179C123.483 302.163 123.441 302.154 123.398 302.154C123.355 302.154 123.313 302.163 123.273 302.179C123.233 302.196 123.197 302.22 123.167 302.25L95.6732 329.688V283.027L110.994 266.879C111.053 266.816 111.085 266.733 111.083 266.647C111.08 266.561 111.044 266.479 110.981 266.42C110.95 266.39 110.913 266.367 110.873 266.352C110.833 266.337 110.791 266.33 110.748 266.331C110.662 266.333 110.58 266.37 110.521 266.433L95.6772 282.081V240.111L106.808 228.835C106.863 228.773 106.892 228.691 106.889 228.608C106.886 228.525 106.851 228.446 106.792 228.387C106.732 228.329 106.652 228.295 106.569 228.294C106.485 228.292 106.404 228.323 106.343 228.379L95.6712 239.181V203.082C95.6712 202.996 95.6368 202.913 95.5756 202.852C95.5143 202.791 95.4313 202.756 95.3447 202.756C95.2581 202.756 95.175 202.791 95.1138 202.852C95.0525 202.913 95.0181 202.996 95.0181 203.082V253.427L86.5514 246.228C86.5194 246.196 86.4812 246.172 86.4393 246.156C86.3974 246.14 86.3527 246.133 86.308 246.135C86.2632 246.137 86.2194 246.149 86.1792 246.168C86.139 246.188 86.1033 246.216 86.0743 246.25C86.0453 246.284 86.0236 246.324 86.0107 246.366C85.9977 246.409 85.9937 246.454 85.9989 246.499C86.0041 246.543 86.0185 246.586 86.041 246.625C86.0635 246.663 86.0938 246.697 86.1299 246.723L95.0201 254.284V301.686L78.245 284.945C78.1828 284.889 78.1016 284.859 78.0181 284.862C77.9346 284.864 77.8552 284.898 77.7961 284.957C77.737 285.016 77.7028 285.095 77.7006 285.179C77.6983 285.262 77.7281 285.343 77.7839 285.405L95.0221 302.606V330.454V374.161C95.0221 374.247 95.0565 374.33 95.1177 374.391C95.179 374.452 95.262 374.487 95.3486 374.487C95.4352 374.487 95.5183 374.452 95.5795 374.391C95.6408 374.33 95.6752 374.247 95.6752 374.161V330.608L123.63 302.711C123.691 302.649 123.724 302.566 123.724 302.48C123.724 302.394 123.689 302.311 123.628 302.25Z" fill="#B8DEBF"/>
<path d="M43.9783 399.106C43.9783 399.106 49.1835 361.437 38.8326 365.147C28.4818 368.856 33.2257 383.965 43.9783 399.106Z" fill="#394CA4"/>
<path d="M44.6671 398.74C44.6671 398.74 23.4904 361.575 8.88047 374.354C-5.72945 387.133 44.6671 398.74 44.6671 398.74Z" fill="#100959"/>
<path opacity="0.5" d="M9.69203 374.771C10.1156 375.932 10.8102 376.916 12.067 377.22C13.6345 377.599 15.3424 377.139 16.9178 377.05C18.686 376.92 20.458 377.246 22.0636 377.996C23.6469 378.751 24.9848 379.892 26.3167 381.002C27.6487 382.112 29.0103 383.325 30.5699 384.113C32.0502 384.86 33.8057 385.18 35.4326 385.432C28.1217 376.468 17.7827 367.38 9.43079 373.9C9.49936 374.196 9.58662 374.487 9.69203 374.771Z" fill="#F2FAFF"/>
<path d="M14.8674 419.216H197.691L195.069 410.095L188.902 388.496C186.788 381.128 182.024 374.798 175.524 370.716C169.024 366.635 161.244 365.089 153.674 366.375L145.757 367.746C145.18 367.845 144.595 367.895 144.01 367.896C142.267 367.894 140.553 367.462 139.019 366.638C137.484 365.814 136.178 364.625 135.216 363.175C121.633 342.844 90.9234 345.36 80.8357 367.637L79.488 370.627C78.3458 373.161 76.2431 375.139 73.6413 376.127C71.0394 377.114 68.1511 377.032 65.6103 375.897L57.7175 372.371C55.5695 371.409 53.1601 371.192 50.8744 371.757C48.5887 372.322 46.5586 373.635 45.1085 375.486C44.0192 376.852 43.2971 378.472 43.0106 380.195L41.837 387.022C41.5659 388.626 40.9249 390.145 39.9648 391.458C39.7906 391.684 39.6145 391.907 39.4403 392.106C37.8563 393.936 35.6903 395.168 33.305 395.594C32.6884 395.715 32.0611 395.773 31.4327 395.768C29.3637 395.774 27.34 395.163 25.622 394.012C21.5114 391.275 16.0015 391.956 12.5063 395.444L7.2003 400.741C0.366368 407.555 5.20534 419.216 14.8674 419.216Z" fill="#4094F2"/>
<path opacity="0.2" d="M7.71083 404.654C8.78153 403.074 9.42673 401.213 10.5786 399.678C12.9535 396.507 17.3175 395.869 21.0264 396.489C23.5201 396.907 25.8733 397.798 28.4402 397.569C30.4439 397.4 32.4299 397.064 34.3776 396.566C38.1973 395.562 42.0685 393.696 44.2119 390.234C46.3553 386.771 45.3281 382.231 47.8495 378.964C50.5609 375.45 55.2317 375.78 58.994 377.155C61.1037 377.925 62.974 379.217 65.0897 379.942C67.5726 380.782 70.2414 380.911 72.7945 380.317C74.1157 380.01 75.3969 379.552 76.6122 378.95C77.3662 378.579 78.053 378.178 78.5913 377.516C79.4661 376.428 79.7946 374.988 79.7432 373.615C79.7116 372.778 79.5306 371.953 79.2088 371.178C77.9712 373.545 75.8753 375.35 73.3489 376.227C70.8226 377.104 68.0562 376.986 65.6142 375.897L57.7214 372.371C55.5734 371.409 53.164 371.192 50.8783 371.757C48.5925 372.321 46.5624 373.634 45.1124 375.486C44.023 376.852 43.301 378.472 43.0145 380.194L41.8409 387.022C41.5697 388.626 40.9288 390.144 39.9686 391.458C39.7945 391.683 39.6183 391.907 39.4442 392.106C37.8596 393.936 35.6939 395.167 33.3089 395.594C32.6922 395.715 32.065 395.773 31.4366 395.768C29.3675 395.774 27.3439 395.163 25.6259 394.012C21.5152 391.275 16.0054 391.956 12.5102 395.444L7.19823 400.741C5.40901 402.49 4.29417 404.811 4.04944 407.298C5.58326 406.959 6.81032 405.995 7.71083 404.654Z" fill="#F2FAFF"/>
<path opacity="0.25" d="M31.0032 419.216H197.691L195.069 410.095C190.886 406.339 185.904 403.579 180.499 402.021C175.093 400.463 169.403 400.148 163.858 401.101L157.691 402.147L154.37 402.697C153.661 402.815 152.942 402.873 152.223 402.87C150.146 402.874 148.101 402.364 146.271 401.386C144.44 400.408 142.881 398.992 141.733 397.265C139.726 394.229 137.278 391.508 134.468 389.191C133.443 388.312 132.358 387.505 131.222 386.774C126.528 383.729 121.213 381.765 115.664 381.023C110.115 380.282 104.47 380.782 99.1386 382.488C89.6764 385.478 81.2869 392.28 76.6181 402.62L74.9952 406.159C73.6213 409.202 71.0933 411.577 67.9664 412.762C64.8394 413.947 61.369 413.845 58.3171 412.479L53.5237 410.336L48.9044 408.268C47.146 407.481 45.2304 407.105 43.3041 407.17C41.3778 407.235 39.4919 407.738 37.7907 408.642C36.0895 409.546 34.618 410.827 33.4889 412.386C32.3598 413.944 31.603 415.74 31.2763 417.636L31.0032 419.216Z" fill="#F2FAFF"/>
<path d="M53.6068 385.587C53.6068 386.228 53.7974 386.855 54.1545 387.389C54.5116 387.922 55.0191 388.338 55.6129 388.583C56.2067 388.828 56.8601 388.893 57.4905 388.768C58.1209 388.642 58.7 388.334 59.1544 387.88C59.6089 387.426 59.9184 386.849 60.0438 386.22C60.1692 385.59 60.1049 384.938 59.8589 384.346C59.6129 383.753 59.1964 383.247 58.662 382.89C58.1276 382.534 57.4993 382.344 56.8565 382.344C55.9947 382.344 55.1681 382.685 54.5586 383.294C53.9492 383.902 53.6068 384.727 53.6068 385.587Z" fill="#100959"/>
<path opacity="0.15" d="M54.3589 386.355C54.3589 386.996 54.5495 387.623 54.9066 388.157C55.2636 388.69 55.7712 389.106 56.365 389.351C56.9588 389.597 57.6122 389.661 58.2426 389.536C58.873 389.41 59.452 389.102 59.9065 388.648C60.361 388.195 60.6705 387.617 60.7959 386.988C60.9213 386.358 60.8569 385.706 60.611 385.114C60.365 384.521 59.9485 384.015 59.4141 383.658C58.8797 383.302 58.2514 383.112 57.6086 383.112C56.7467 383.112 55.9202 383.453 55.3107 384.062C54.7013 384.67 54.3589 385.495 54.3589 386.355Z" fill="#202234"/>
<path d="M100.734 410.358C100.734 410.999 100.924 411.626 101.282 412.16C101.639 412.693 102.146 413.109 102.74 413.354C103.334 413.599 103.987 413.664 104.618 413.539C105.248 413.413 105.827 413.105 106.282 412.651C106.736 412.197 107.046 411.62 107.171 410.99C107.296 410.361 107.232 409.709 106.986 409.117C106.74 408.524 106.323 408.018 105.789 407.661C105.255 407.305 104.626 407.115 103.984 407.115C103.122 407.115 102.295 407.456 101.686 408.065C101.076 408.673 100.734 409.498 100.734 410.358Z" fill="#394CA4"/>
<path opacity="0.15" d="M88.2633 369.14C88.2633 370.377 88.6307 371.585 89.3191 372.613C90.0075 373.641 90.9859 374.443 92.1306 374.916C93.2753 375.389 94.5349 375.512 95.75 375.271C96.9651 375.03 98.0813 374.434 98.9572 373.56C99.8332 372.685 100.43 371.571 100.671 370.359C100.913 369.146 100.788 367.889 100.314 366.747C99.8394 365.604 99.0362 364.628 98.0059 363.942C96.9755 363.255 95.7642 362.889 94.5253 362.889C93.7028 362.889 92.8883 363.051 92.1285 363.365C91.3686 363.679 90.6782 364.14 90.0967 364.72C89.5152 365.301 89.054 365.99 88.7394 366.748C88.4248 367.507 88.263 368.319 88.2633 369.14Z" fill="#202234"/>
<path d="M89.0491 366.912C89.0491 368.149 89.4165 369.357 90.1049 370.385C90.7933 371.413 91.7717 372.215 92.9164 372.688C94.0611 373.161 95.3206 373.284 96.5358 373.043C97.7509 372.802 98.867 372.206 99.743 371.332C100.619 370.457 101.215 369.343 101.457 368.131C101.698 366.918 101.574 365.661 101.1 364.519C100.625 363.376 99.822 362.4 98.7916 361.714C97.7613 361.027 96.55 360.661 95.311 360.661C94.4885 360.661 93.6741 360.823 92.9142 361.137C92.1544 361.451 91.464 361.912 90.8825 362.492C90.301 363.073 89.8397 363.762 89.5252 364.52C89.2106 365.279 89.0488 366.091 89.0491 366.912Z" fill="#394CA4"/>
<path d="M53.7256 417.509C53.7256 417.509 68.3811 399.068 61.6916 397.796C55.0022 396.524 52.7697 406.062 53.7256 417.509Z" fill="#100959"/>
<path opacity="0.5" d="M54.1966 406.173C54.8794 406.011 55.3069 405.535 55.5998 404.919C56.1936 403.682 56.1461 402.233 56.821 401.032C57.1644 400.434 57.6889 399.959 58.3192 399.677C58.9386 399.393 59.6313 399.25 60.2211 398.901C60.8109 398.551 60.896 398.154 60.4546 397.684C56.9536 397.731 54.8873 401.129 54.0126 406.205C54.0719 406.193 54.1353 406.187 54.1966 406.173Z" fill="#F2FAFF"/>
<path d="M53.7255 417.51C53.7255 417.51 44.487 392.711 34.2905 399.068C24.094 405.426 53.7255 417.51 53.7255 417.51Z" fill="#394CA4"/>
<path opacity="0.2" d="M34.7062 398.847C34.8165 399.079 35.003 399.266 35.2346 399.377C35.6423 399.543 36.1668 399.477 36.5962 399.47C37.5423 399.452 38.518 399.385 39.4521 399.572C40.4575 399.77 41.4194 400.362 42.2467 400.939C43.7686 402.011 44.7503 403.682 46.3138 404.682C46.6358 404.879 46.9765 405.045 47.331 405.176C43.9032 400.244 39.4264 396.288 34.7062 398.847Z" fill="#F2FAFF"/>
<path d="M53.7256 417.509C53.7256 417.509 87.8161 413.382 79.2069 407.972C70.5977 402.562 53.7256 417.509 53.7256 417.509Z" fill="#394CA4"/>
<path opacity="0.2" d="M65.1096 409.959C66.113 409.775 66.8512 409.185 67.7062 408.677C68.5113 408.182 69.3926 407.823 70.3147 407.615C71.6229 407.34 72.937 407.674 74.2512 407.494C74.7103 407.431 75.2408 407.275 75.4209 406.821C72.0148 406.611 68.0783 408.091 64.498 410.016C64.703 410.012 64.9074 409.993 65.1096 409.959Z" fill="#F2FAFF"/>
<path d="M341.057 399.106C341.057 399.106 346.259 361.427 335.912 365.146C325.565 368.865 330.301 383.965 341.057 399.106Z" fill="#394CA4"/>
<path d="M341.742 398.74C341.742 398.74 320.565 361.575 305.956 374.354C291.346 387.133 341.742 398.74 341.742 398.74Z" fill="#100959"/>
<path opacity="0.5" d="M306.767 374.771C307.191 375.932 307.885 376.916 309.142 377.22C310.709 377.599 312.417 377.139 313.993 377.05C315.761 376.92 317.533 377.246 319.139 377.996C320.722 378.751 322.06 379.892 323.39 381.002C324.72 382.112 326.083 383.325 327.643 384.113C329.123 384.86 330.879 385.18 332.506 385.432C325.183 376.468 314.856 367.38 306.504 373.9C306.575 374.195 306.663 374.486 306.767 374.771Z" fill="#F2FAFF"/>
<path d="M311.952 419.216H494.776L492.154 410.095L485.977 388.496C483.863 381.128 479.099 374.798 472.599 370.716C466.099 366.635 458.319 365.089 450.749 366.375L442.832 367.746C442.255 367.844 441.67 367.895 441.084 367.896C439.344 367.894 437.631 367.463 436.097 366.641C434.564 365.819 433.258 364.632 432.295 363.185C418.712 342.854 388.002 345.37 377.915 367.647L376.567 370.637C375.424 373.171 373.321 375.149 370.719 376.136C368.117 377.124 365.228 377.042 362.687 375.907L354.795 372.381C352.646 371.418 350.237 371.202 347.951 371.767C345.666 372.331 343.636 373.644 342.185 375.496C341.096 376.862 340.374 378.482 340.088 380.204L338.914 387.032C338.644 388.636 338.003 390.155 337.042 391.468C336.868 391.693 336.691 391.916 336.517 392.116C334.933 393.946 332.767 395.178 330.382 395.604C329.765 395.725 329.138 395.783 328.51 395.778C326.441 395.784 324.417 395.173 322.699 394.022C318.588 391.284 313.078 391.966 309.583 395.454L304.279 400.747C297.441 407.555 302.28 419.216 311.952 419.216Z" fill="#4094F2"/>
<path opacity="0.2" d="M304.788 404.654C305.859 403.074 306.504 401.213 307.656 399.678C310.031 396.507 314.385 395.869 318.101 396.489C320.595 396.907 322.948 397.798 325.515 397.569C327.519 397.4 329.505 397.064 331.453 396.566C335.272 395.562 339.144 393.696 341.287 390.234C343.43 386.771 342.403 382.231 344.925 378.964C347.636 375.45 352.307 375.78 356.069 377.155C358.179 377.925 360.049 379.217 362.165 379.942C364.648 380.781 367.317 380.911 369.87 380.317C371.191 380.01 372.472 379.552 373.687 378.95C374.441 378.579 375.128 378.178 375.666 377.516C376.541 376.428 376.87 374.988 376.818 373.615C376.787 372.778 376.606 371.953 376.284 371.178C375.046 373.545 372.95 375.35 370.424 376.227C367.898 377.104 365.131 376.986 362.689 375.897L354.797 372.371C352.648 371.409 350.239 371.192 347.953 371.757C345.668 372.321 343.638 373.634 342.187 375.486C341.098 376.852 340.376 378.472 340.09 380.194L338.916 387.022C338.646 388.626 338.005 390.145 337.044 391.458C336.87 391.683 336.693 391.907 336.519 392.106C334.935 393.936 332.769 395.167 330.384 395.594C329.767 395.715 329.14 395.773 328.512 395.768C326.443 395.774 324.419 395.163 322.701 394.012C318.59 391.275 313.08 391.956 309.585 395.444L304.281 400.737C302.492 402.486 301.377 404.807 301.132 407.294C302.65 406.959 303.885 405.995 304.788 404.654Z" fill="#F2FAFF"/>
<path opacity="0.25" d="M328.078 419.216H494.766L492.144 410.095C487.961 406.339 482.979 403.579 477.574 402.021C472.168 400.463 466.478 400.148 460.933 401.101L454.766 402.147L451.445 402.697C450.736 402.815 450.017 402.873 449.298 402.87C447.221 402.874 445.176 402.364 443.346 401.386C441.515 400.408 439.956 398.992 438.808 397.265C436.801 394.229 434.353 391.508 431.543 389.191C430.518 388.312 429.433 387.505 428.297 386.774C423.603 383.729 418.289 381.765 412.739 381.023C407.19 380.282 401.545 380.782 396.214 382.488C386.751 385.478 378.362 392.28 373.693 402.62L372.07 406.159C370.696 409.202 368.168 411.577 365.041 412.762C361.914 413.947 358.444 413.845 355.392 412.479L350.599 410.336L345.979 408.268C344.221 407.481 342.305 407.105 340.379 407.17C338.453 407.235 336.567 407.738 334.866 408.642C333.165 409.546 331.693 410.827 330.564 412.386C329.435 413.944 328.678 415.74 328.351 417.636L328.078 419.216Z" fill="#F2FAFF"/>
<path d="M350.682 385.587C350.682 386.228 350.872 386.855 351.23 387.389C351.587 387.922 352.094 388.338 352.688 388.583C353.282 388.828 353.935 388.893 354.566 388.768C355.196 388.642 355.775 388.334 356.23 387.88C356.684 387.426 356.994 386.849 357.119 386.22C357.244 385.59 357.18 384.938 356.934 384.346C356.688 383.753 356.271 383.247 355.737 382.89C355.203 382.534 354.574 382.344 353.932 382.344C353.505 382.344 353.082 382.428 352.688 382.591C352.294 382.754 351.935 382.992 351.634 383.294C351.332 383.595 351.093 383.952 350.929 384.346C350.766 384.739 350.682 385.161 350.682 385.587Z" fill="#100959"/>
<path opacity="0.15" d="M351.436 386.355C351.436 386.996 351.626 387.623 351.984 388.157C352.341 388.69 352.848 389.106 353.442 389.351C354.036 389.597 354.689 389.661 355.32 389.536C355.95 389.41 356.529 389.102 356.984 388.648C357.438 388.195 357.748 387.617 357.873 386.988C357.998 386.358 357.934 385.706 357.688 385.114C357.442 384.521 357.026 384.015 356.491 383.658C355.957 383.302 355.328 383.112 354.686 383.112C353.824 383.112 352.997 383.453 352.388 384.062C351.778 384.67 351.436 385.495 351.436 386.355Z" fill="#202234"/>
<path d="M397.809 410.358C397.809 410.999 397.999 411.626 398.357 412.16C398.714 412.693 399.221 413.109 399.815 413.354C400.409 413.599 401.062 413.664 401.693 413.539C402.323 413.413 402.902 413.105 403.356 412.651C403.811 412.197 404.12 411.62 404.246 410.99C404.371 410.361 404.307 409.709 404.061 409.117C403.815 408.524 403.398 408.018 402.864 407.661C402.33 407.305 401.701 407.115 401.059 407.115C400.197 407.115 399.37 407.456 398.761 408.065C398.151 408.673 397.809 409.498 397.809 410.358Z" fill="#394CA4"/>
<path opacity="0.15" d="M385.338 369.14C385.338 370.377 385.706 371.585 386.394 372.613C387.083 373.641 388.061 374.443 389.206 374.916C390.35 375.389 391.61 375.512 392.825 375.271C394.04 375.03 395.156 374.434 396.032 373.56C396.908 372.685 397.505 371.571 397.746 370.359C397.988 369.146 397.863 367.889 397.389 366.747C396.914 365.604 396.111 364.628 395.081 363.942C394.051 363.255 392.839 362.889 391.6 362.889C390.778 362.889 389.963 363.051 389.204 363.365C388.444 363.679 387.753 364.14 387.172 364.72C386.59 365.301 386.129 365.99 385.814 366.748C385.5 367.507 385.338 368.319 385.338 369.14Z" fill="#202234"/>
<path d="M386.124 366.912C386.124 368.149 386.492 369.357 387.18 370.385C387.868 371.413 388.846 372.214 389.991 372.687C391.136 373.161 392.395 373.284 393.61 373.043C394.825 372.802 395.941 372.207 396.817 371.332C397.693 370.458 398.29 369.344 398.532 368.132C398.773 366.919 398.649 365.662 398.175 364.52C397.701 363.378 396.898 362.402 395.868 361.715C394.838 361.028 393.627 360.661 392.388 360.661C391.565 360.661 390.751 360.822 389.991 361.136C389.231 361.451 388.54 361.911 387.958 362.491C387.377 363.072 386.915 363.761 386.6 364.52C386.286 365.278 386.124 366.091 386.124 366.912Z" fill="#394CA4"/>
<path d="M350.801 417.509C350.801 417.509 365.446 399.068 358.767 397.796C352.087 396.524 349.845 406.062 350.801 417.509Z" fill="#100959"/>
<path opacity="0.5" d="M351.272 406.173C351.955 406.011 352.382 405.535 352.675 404.919C353.269 403.682 353.219 402.233 353.896 401.032C354.239 400.434 354.764 399.959 355.394 399.677C356.014 399.393 356.706 399.25 357.296 398.901C357.886 398.551 357.971 398.154 357.53 397.684C354.029 397.731 351.962 401.129 351.088 406.205C351.149 406.193 351.212 406.187 351.272 406.173Z" fill="#F2FAFF"/>
<path d="M350.801 417.51C350.801 417.51 341.562 392.711 331.366 399.068C321.169 405.426 350.801 417.51 350.801 417.51Z" fill="#394CA4"/>
<path opacity="0.2" d="M331.783 398.847C331.894 399.079 332.08 399.266 332.312 399.377C332.719 399.543 333.244 399.477 333.673 399.47C334.621 399.452 335.595 399.385 336.529 399.572C337.535 399.77 338.496 400.362 339.324 400.939C340.846 402.011 341.827 403.682 343.389 404.682C343.711 404.879 344.052 405.045 344.406 405.176C340.98 400.244 336.494 396.288 331.783 398.847Z" fill="#F2FAFF"/>
<path d="M350.801 417.509C350.801 417.509 384.891 413.376 376.288 407.972C367.685 402.568 350.801 417.509 350.801 417.509Z" fill="#394CA4"/>
<path opacity="0.2" d="M362.185 409.959C363.188 409.775 363.926 409.185 364.781 408.677C365.586 408.182 366.468 407.823 367.39 407.615C368.698 407.34 370.012 407.674 371.326 407.494C371.785 407.431 372.316 407.275 372.496 406.821C369.092 406.611 365.153 408.091 361.573 410.016C361.778 410.012 361.982 409.993 362.185 409.959Z" fill="#F2FAFF"/>
<path d="M649.944 388.506C649.944 388.506 642.002 330.97 657.815 336.648C673.628 342.326 666.371 365.387 649.944 388.506Z" fill="#394CA4"/>
<path d="M648.899 387.951C648.899 387.951 681.238 331.197 703.549 350.711C725.859 370.225 648.899 387.951 648.899 387.951Z" fill="#100959"/>
<path opacity="0.5" d="M702.308 351.347C701.66 353.125 700.602 354.622 698.686 355.086C696.291 355.664 693.685 354.961 691.278 354.827C688.533 354.673 685.903 355.08 683.413 356.273C681.008 357.426 678.952 359.168 676.919 360.863C674.887 362.557 672.807 364.418 670.424 365.613C668.164 366.752 665.476 367.24 662.998 367.629C674.164 353.94 689.952 340.061 702.705 350.02C702.599 350.47 702.466 350.913 702.308 351.347Z" fill="#F2FAFF"/>
<path d="M694.405 419.216H415.219L419.221 405.284L428.64 372.3C431.867 361.048 439.141 351.378 449.067 345.144C458.994 338.909 470.876 336.547 482.438 338.511L494.525 340.603C497.595 341.128 500.752 340.748 503.61 339.512C506.468 338.275 508.903 336.234 510.617 333.638C531.358 302.59 578.256 306.434 593.659 340.45L595.72 345.017C597.464 348.886 600.675 351.907 604.649 353.416C608.622 354.924 613.034 354.798 616.914 353.065L628.967 347.681C632.247 346.211 635.926 345.881 639.417 346.743C642.907 347.606 646.007 349.61 648.222 352.437C649.885 354.523 650.987 356.998 651.424 359.628L653.215 370.055C653.628 372.503 654.607 374.822 656.075 376.827C656.342 377.171 656.61 377.513 656.877 377.815C659.298 380.613 662.609 382.496 666.256 383.147C667.198 383.332 668.156 383.421 669.116 383.414C672.275 383.424 675.365 382.489 677.988 380.732C684.266 376.551 692.681 377.594 698.017 382.918L706.115 391C716.549 401.411 709.163 419.216 694.405 419.216Z" fill="#4094F2"/>
<path opacity="0.2" d="M705.332 396.988C703.697 394.561 702.711 391.735 700.954 389.392C697.32 384.549 690.662 383.574 685.002 384.522C681.192 385.16 677.6 386.523 673.68 386.171C670.618 385.914 667.583 385.401 664.607 384.638C658.773 383.108 652.863 380.256 649.59 374.961C646.316 369.665 647.884 362.741 644.034 357.752C639.894 352.385 632.753 352.891 627.014 354.987C623.794 356.172 620.936 358.135 617.712 359.243C613.92 360.525 609.845 360.724 605.946 359.816C603.928 359.348 601.971 358.648 600.115 357.728C598.965 357.163 597.915 356.543 597.101 355.538C595.765 353.875 595.264 351.676 595.342 349.581C595.391 348.302 595.668 347.042 596.159 345.86C598.048 349.475 601.249 352.233 605.107 353.572C608.966 354.911 613.191 354.73 616.92 353.065L628.973 347.681C632.253 346.211 635.932 345.881 639.423 346.743C642.913 347.605 646.013 349.61 648.228 352.437C649.891 354.523 650.993 356.998 651.43 359.628L653.211 370.054C653.624 372.503 654.603 374.822 656.071 376.827C656.338 377.171 656.606 377.512 656.863 377.814C659.284 380.613 662.595 382.496 666.242 383.147C667.184 383.332 668.142 383.421 669.102 383.414C672.261 383.423 675.351 382.489 677.974 380.732C684.252 376.55 692.667 377.593 698.003 382.918L706.102 391C709.045 393.939 710.569 397.464 710.909 401.014C708.597 400.498 706.709 399.027 705.332 396.988Z" fill="#F2FAFF"/>
<path opacity="0.25" d="M669.765 419.216H415.219L419.221 405.284C425.608 399.548 433.215 395.332 441.47 392.953C449.725 390.574 458.413 390.094 466.88 391.549L476.299 393.147L481.37 393.985C482.453 394.166 483.55 394.255 484.649 394.251C486.995 394.258 489.322 393.832 491.513 392.995C495.25 391.568 498.448 389.013 500.662 385.687C503.727 381.051 507.466 376.896 511.757 373.359C513.321 372.018 514.974 370.784 516.705 369.668C523.874 365.018 531.99 362.019 540.464 360.887C548.938 359.755 557.559 360.519 565.7 363.124C580.148 367.691 592.961 378.077 600.092 393.868L602.571 399.272C604.667 403.922 608.527 407.552 613.302 409.364C618.078 411.176 623.379 411.022 628.041 408.936L635.364 405.663L642.417 402.503C645.102 401.302 648.027 400.729 650.968 400.829C653.909 400.928 656.788 401.698 659.386 403.078C661.983 404.459 664.229 406.413 665.954 408.793C667.678 411.173 668.834 413.915 669.333 416.809L669.765 419.216Z" fill="#F2FAFF"/>
<path d="M635.247 367.862C635.247 368.841 634.955 369.799 634.41 370.613C633.864 371.427 633.089 372.061 632.183 372.435C631.276 372.81 630.278 372.908 629.316 372.716C628.354 372.525 627.47 372.053 626.776 371.361C626.082 370.668 625.61 369.786 625.419 368.825C625.228 367.865 625.326 366.87 625.701 365.965C626.077 365.06 626.713 364.287 627.529 363.743C628.345 363.199 629.304 362.909 630.285 362.909C630.937 362.908 631.583 363.036 632.185 363.285C632.787 363.534 633.334 363.899 633.795 364.359C634.256 364.819 634.621 365.365 634.87 365.966C635.119 366.567 635.247 367.212 635.247 367.862Z" fill="#100959"/>
<path opacity="0.15" d="M634.097 369.035C634.097 370.015 633.805 370.972 633.26 371.786C632.714 372.6 631.939 373.234 631.033 373.609C630.126 373.983 629.128 374.081 628.166 373.89C627.204 373.698 626.32 373.227 625.626 372.534C624.932 371.841 624.46 370.959 624.269 369.999C624.077 369.038 624.176 368.043 624.551 367.138C624.927 366.234 625.563 365.46 626.379 364.916C627.195 364.372 628.154 364.082 629.135 364.082C629.787 364.082 630.432 364.21 631.034 364.459C631.637 364.708 632.184 365.073 632.644 365.533C633.105 365.993 633.471 366.539 633.72 367.14C633.969 367.741 634.097 368.385 634.097 369.035Z" fill="#202234"/>
<path d="M563.28 405.691C563.28 406.671 562.989 407.628 562.443 408.443C561.898 409.258 561.122 409.893 560.215 410.267C559.308 410.642 558.31 410.74 557.347 410.549C556.384 410.358 555.5 409.886 554.806 409.193C554.112 408.5 553.639 407.617 553.448 406.656C553.256 405.695 553.355 404.699 553.731 403.794C554.107 402.889 554.743 402.115 555.56 401.571C556.376 401.027 557.336 400.737 558.318 400.737C558.97 400.737 559.615 400.865 560.218 401.114C560.82 401.363 561.367 401.728 561.828 402.188C562.289 402.648 562.654 403.194 562.903 403.795C563.152 404.396 563.28 405.04 563.28 405.691Z" fill="#394CA4"/>
<path opacity="0.15" d="M582.323 342.737C582.323 344.625 581.762 346.471 580.711 348.041C579.66 349.611 578.166 350.834 576.418 351.556C574.67 352.279 572.747 352.468 570.891 352.099C569.036 351.731 567.331 350.822 565.994 349.486C564.656 348.151 563.745 346.45 563.376 344.598C563.007 342.747 563.197 340.827 563.921 339.083C564.646 337.339 565.872 335.848 567.445 334.8C569.018 333.751 570.868 333.192 572.76 333.192C574.016 333.192 575.26 333.439 576.42 333.919C577.58 334.398 578.635 335.101 579.523 335.988C580.411 336.874 581.115 337.927 581.596 339.085C582.076 340.243 582.323 341.484 582.323 342.737Z" fill="#202234"/>
<path d="M581.124 339.344C581.124 341.232 580.563 343.078 579.512 344.648C578.46 346.218 576.966 347.441 575.219 348.163C573.471 348.886 571.547 349.075 569.692 348.706C567.836 348.338 566.132 347.428 564.794 346.093C563.457 344.758 562.546 343.057 562.177 341.205C561.808 339.354 561.998 337.434 562.722 335.69C563.446 333.946 564.673 332.455 566.246 331.407C567.819 330.358 569.669 329.798 571.561 329.799C572.817 329.799 574.06 330.046 575.221 330.525C576.381 331.005 577.435 331.708 578.323 332.595C579.211 333.481 579.916 334.533 580.396 335.692C580.877 336.85 581.124 338.091 581.124 339.344Z" fill="#394CA4"/>
<path d="M635.065 416.609C635.065 416.609 612.685 388.449 622.901 386.507C633.117 384.566 636.529 399.132 635.065 416.609Z" fill="#100959"/>
<path opacity="0.5" d="M634.352 399.297C633.309 399.05 632.658 398.322 632.209 397.381C631.31 395.493 631.376 393.279 630.345 391.456C629.82 390.542 629.019 389.818 628.057 389.386C627.109 388.952 626.054 388.733 625.153 388.201C624.282 387.688 624.122 387.062 624.797 386.345C630.141 386.418 633.307 391.604 634.635 399.356C634.534 399.329 634.439 399.319 634.352 399.297Z" fill="#F2FAFF"/>
<path d="M635.065 416.609C635.065 416.609 649.174 378.737 664.752 388.449C680.329 398.16 635.065 416.609 635.065 416.609Z" fill="#394CA4"/>
<path opacity="0.2" d="M664.108 388.111C663.94 388.464 663.656 388.749 663.303 388.92C662.682 389.173 661.88 389.074 661.223 389.063C659.776 389.035 658.288 388.934 656.869 389.219C655.333 389.527 653.866 390.404 652.6 391.304C650.276 392.942 648.776 395.491 646.389 397.02C645.898 397.322 645.377 397.575 644.836 397.775C650.065 390.244 656.914 384.202 664.108 388.111Z" fill="#F2FAFF"/>
<path d="M635.065 416.609C635.065 416.609 583.014 410.289 596.143 402.043C609.273 393.797 635.065 416.609 635.065 416.609Z" fill="#394CA4"/>
<path opacity="0.2" d="M617.68 405.086C616.146 404.806 615.02 403.901 613.722 403.129C612.492 402.374 611.147 401.826 609.74 401.506C607.743 401.087 605.734 401.594 603.729 401.322C603.029 401.227 602.207 400.986 601.948 400.293C607.147 399.973 613.16 402.232 618.628 405.173C618.31 405.167 617.994 405.138 617.68 405.086Z" fill="#F2FAFF"/>
<path d="M209.224 105.94C209.224 105.94 230.778 123.574 239.625 124.172C249.214 124.824 274.943 109.047 274.943 109.047L280.391 117.04C280.391 117.04 249.337 144.099 235.861 144.152C223.95 144.19 195.168 119.428 195.168 119.428L209.224 105.94Z" fill="#FB8A77"/>
<path d="M274.943 109.049L278.901 105.781C278.901 105.781 279.085 89.915 281.276 91.9257C283.467 93.9363 284.71 96.8633 284.71 96.8633C284.71 96.8633 287.876 90.2705 290.993 92.3957C294.11 94.5209 300.727 102.376 297.505 104.866C294.283 107.357 294.677 111.99 290.081 111.333C286.469 110.813 280.383 117.037 280.383 117.037L274.943 109.049Z" fill="#FB8A77"/>
<path d="M176.752 419.131C179.741 417.794 183.131 417.893 185.631 418.27C187.426 418.54 189.013 419.49 190.42 420.715C194.19 423.997 205.066 424.612 207.504 427.233C210.288 430.223 205.182 432.216 205.182 432.216H177.57C173.17 432.962 173.611 430.472 173.611 430.472C173.611 430.472 171.181 421.624 176.752 419.131Z" fill="#231F20"/>
<path d="M187.143 405.651V422.834C187.143 422.834 181.868 426.713 176.594 422.834V405.651H187.143Z" fill="#FF8D7D"/>
<path d="M159.011 182.352L167.896 303.38L175.234 418.025L188.617 416.054L201.21 295.691L187.143 182.352H159.011Z" fill="#202234"/>
<path d="M123.381 420.079C126.548 419.289 129.912 419.901 132.356 420.632C134.108 421.158 135.557 422.277 136.786 423.628C140.079 427.247 150.838 429.471 152.9 432.267C155.253 435.463 149.878 436.533 149.878 436.533L122.352 432.342C117.859 432.366 118.655 430.124 118.655 430.124C118.655 430.124 117.471 421.541 123.381 420.079Z" fill="#231F20"/>
<path d="M136.613 405.651L133.031 422.834C133.031 422.834 127.757 426.713 122.48 422.834L126.063 405.651H136.613Z" fill="#FF8D7D"/>
<path d="M138.282 188.864C138.282 188.864 129.398 199.207 130.138 224.326C130.878 249.445 130.094 288.603 130.094 288.603L123.723 412.149C123.723 412.149 133.514 417.648 136.613 415.594C167.797 394.942 167.896 268.649 167.896 268.649C167.896 268.649 180.481 185.903 172.337 182.946C164.193 179.99 138.282 188.864 138.282 188.864Z" fill="#232B57"/>
<path d="M192.69 130.6C192.69 130.6 207.138 134.933 209.631 132.991C212.125 131.05 220.772 111.566 218.239 109.812C215.705 108.058 189.789 92.1589 175.082 91.748C175.08 91.748 196.854 119.703 192.69 130.6Z" fill="#4094F2"/>
<path opacity="0.25" d="M218.239 109.814C217.249 109.129 212.683 106.281 206.613 103.042C205.962 103.865 205.392 104.754 204.832 105.631C203.987 106.932 203.154 108.246 202.192 109.466C201.303 110.594 200.282 111.673 199.025 112.388C197.813 113.084 196.394 113.335 195.016 113.097C194.626 113.047 194.246 112.941 193.887 112.781C193.522 112.581 193.183 112.336 192.878 112.052C192.11 111.376 191.433 110.606 190.667 109.931C189.842 109.2 188.868 108.7 187.861 108.26C187.152 107.953 186.425 107.69 185.684 107.47C190.515 115.733 194.756 125.245 192.706 130.602C192.706 130.602 207.154 134.935 209.647 132.993C212.141 131.052 220.77 111.568 218.239 109.814Z" fill="#231F20"/>
<path d="M162.712 88.3882C196.027 87.4895 196.027 131.247 196.027 131.247C196.027 131.247 202.839 183.332 190.473 193.308C179.606 202.075 143.463 204.072 134.579 193.308C125.164 181.904 134.579 134.204 134.579 134.204C134.579 134.204 123.747 89.4369 162.712 88.3882Z" fill="#4094F2"/>
<path opacity="0.25" d="M174.997 192.705C173.338 191.564 171.389 191.305 169.417 191.341C167.308 191.38 165.21 191.619 163.1 191.431C161.219 191.269 159.383 190.765 157.683 189.944C156.032 189.126 154.431 188.214 152.886 187.211C149.323 184.951 145.834 182.421 142.877 179.411C141.583 178.094 140.485 176.695 139.756 174.987C138.705 172.522 138.337 169.836 138.327 167.174C138.306 161.341 139.786 155.623 139.849 149.793C139.944 141.103 138.531 132.553 136.984 124.028C136.53 124.329 136.092 124.652 135.671 124.998C134.913 125.618 134.197 126.29 133.482 126.961C133.693 129.393 134.062 131.808 134.587 134.192C134.587 134.192 125.172 181.892 134.587 193.296C141.346 201.485 163.878 202.286 179.062 198.342C178.213 196.124 176.976 194.068 174.997 192.705Z" fill="#231F20"/>
<path d="M133.197 131.144L118.295 162.267L140.875 193.298L135.751 201.044C135.751 201.044 100.954 176.119 97.9353 163.006C95.2694 151.42 116.969 120.479 116.969 120.479L133.197 131.144Z" fill="#FB8A77"/>
<path d="M140.874 193.298L150.556 197.416C150.556 197.416 160.494 195.561 159.013 198.149C157.533 200.736 154.94 200.124 154.94 200.124C154.94 200.124 162.083 201.751 160.693 205.259C159.304 208.767 153.09 216.937 149.943 214.344C146.796 211.751 142.539 212.636 142.169 208.024C141.878 204.394 135.749 201.04 135.749 201.04L140.874 193.298Z" fill="#FB8A77"/>
<path d="M134.581 134.194L127.917 140.842C127.917 140.842 106.634 131.33 106.634 127.174C106.634 123.019 126.813 96.0019 144.914 93.4896C153.226 92.3382 134.581 134.194 134.581 134.194Z" fill="#4094F2"/>
<path d="M133.348 400.954L150.455 295.743V217.915C159.973 214.788 164.274 200.645 164.454 200.041L163.832 199.857C163.789 200.003 159.381 214.5 150.036 217.37L149.808 217.441V295.691L132.717 400.852L133.348 400.954Z" fill="#726658"/>
<path opacity="0.5" d="M182.193 403.704C182.846 393.333 188.55 302.333 187.426 300.279C186.565 298.699 177.104 259.109 172.222 238.393L171.589 238.541C172.169 240.99 185.739 298.541 186.858 300.587C187.691 302.811 183.305 375.747 181.544 403.662L182.193 403.704Z" fill="#726658"/>
<path d="M188.395 111.275C182.656 114.305 176.004 116.531 169.746 115.948C166.619 115.658 163.979 114.03 161.127 112.549C158.328 111.097 154.992 110.114 152.365 112.595C151.843 113.088 151.338 111.974 151.855 111.487C157.02 106.616 162.894 113.227 168.052 114.396C171.46 115.168 175.062 114.581 178.43 113.764C181.806 112.929 185.064 111.677 188.128 110.037C188.722 109.721 188.991 110.961 188.397 111.275H188.395ZM189.715 123.102L179.661 125.036C176.538 125.628 173.301 126.641 170.138 126.742C167.225 126.837 165.158 124.249 162.461 123.333C159.405 122.296 156.175 122.709 153.072 123.102C152.425 123.183 152.429 121.901 153.072 121.818C155.862 121.465 158.693 121.141 161.475 121.747C162.814 122.044 164.088 122.579 165.236 123.327C166.692 124.267 167.989 125.377 169.683 125.456C171.377 125.535 173.081 125.006 174.733 124.69L179.392 123.793L189.444 121.862C190.082 121.743 190.355 122.979 189.713 123.102H189.715ZM187.594 133.2C182.072 135.213 176.313 136.706 170.555 135.553C167.725 134.986 165.002 133.817 162.342 132.503C159.472 131.089 156.587 129.521 153.436 129.993C152.791 130.09 152.797 128.808 153.436 128.711C156.177 128.298 158.764 129.371 161.291 130.611C163.967 131.927 166.635 133.24 169.457 133.994C175.462 135.602 181.53 134.075 187.323 131.962C187.948 131.735 188.215 132.971 187.59 133.2H187.594Z" fill="white"/>
<path d="M157.812 70.5771L156.165 90.2883C156.165 90.2883 162.453 99.2769 168.468 92.3918L168.072 79.1588L157.812 70.5771Z" fill="#FB8A77"/>
<path opacity="0.15" d="M163.217 92.7355C164.495 90.476 164.943 87.0631 162.867 85.1078C162.026 84.3178 160.943 83.8319 160.131 83.0063C159.124 81.9793 158.918 80.4012 159.039 79.0266C159.237 76.7849 160.151 74.5866 159.955 72.3706L168.07 79.1648L168.466 92.3978C166.116 95.0859 163.728 95.3604 161.687 94.677C162.293 94.1108 162.808 93.4562 163.217 92.7355Z" fill="#33133F"/>
<path d="M183.584 49.8959C183.584 49.8959 185.239 81.5148 172.663 82.7235C160.088 83.9323 154.335 70.802 154.335 70.802C154.335 70.802 152.039 72.2754 151.445 69.9705C150.851 67.6656 148.021 63.6345 150.754 62.0426C153.487 60.4507 154.416 62.9709 154.416 62.9709L152.745 55.833C152.745 55.833 183.073 39.5407 183.584 49.8959Z" fill="#FB8A77"/>
<path opacity="0.05" d="M153.323 63.6368C153.323 63.6368 151.649 62.7718 151.01 64.0753C150.37 65.3789 151.914 70.281 153.86 69.6529C153.101 69.2981 152.472 68.7156 152.061 67.9869C151.65 67.2582 151.478 66.4195 151.568 65.5882C151.811 62.5703 152.908 64.6026 153.323 63.6368Z" fill="#33133F"/>
<path d="M153.622 62.2522C154.528 63.5498 161.996 50.4018 167.278 53.1412C172.56 55.8806 178.913 54.8694 180.801 52.2267C182.689 49.5841 188.229 49.8962 183.699 42.1855C175.432 28.127 134.945 35.4979 153.622 62.2522Z" fill="#202234"/>
<path opacity="0.05" d="M161.224 68.049C161.075 68.9279 162.035 69.8265 163.365 70.0438C164.695 70.261 165.895 69.7376 166.043 68.8587C166.191 67.9798 165.234 67.0812 163.902 66.8639C162.57 66.6467 161.372 67.172 161.224 68.049ZM176.303 68.1319C176.154 69.0108 177.112 69.9095 178.444 70.1267C179.776 70.344 180.976 69.8206 181.124 68.9417C181.272 68.0628 180.313 67.1641 178.983 66.9469C177.653 66.7296 176.451 67.255 176.303 68.1398V68.1319Z" fill="#33133F"/>
<path d="M175.666 59.8761C175.731 59.8759 175.795 59.8587 175.852 59.8262C175.908 59.7936 175.955 59.7468 175.988 59.6904C176.048 59.5857 177.486 57.2137 181.017 58.774C181.062 58.7937 181.11 58.8044 181.159 58.8056C181.208 58.8067 181.256 58.7982 181.302 58.7806C181.348 58.763 181.389 58.7366 181.425 58.703C181.46 58.6693 181.488 58.629 181.508 58.5844C181.528 58.5398 181.539 58.4917 181.54 58.4429C181.541 58.3942 181.532 58.3457 181.515 58.3002C181.497 58.2547 181.471 58.2131 181.437 58.1779C181.403 58.1426 181.363 58.1143 181.318 58.0946C177.162 56.2538 175.359 59.2895 175.341 59.3191C175.293 59.4049 175.28 59.5062 175.306 59.6012C175.332 59.6961 175.394 59.7771 175.48 59.8267C175.536 59.86 175.6 59.8771 175.666 59.8761ZM168.446 59.9412C168.493 59.9408 168.54 59.9315 168.584 59.9136C168.674 59.8752 168.744 59.8036 168.781 59.7139C168.818 59.6242 168.819 59.5236 168.782 59.4337C168.768 59.4001 167.417 56.157 162.522 57.2058C162.426 57.2266 162.342 57.2846 162.288 57.3671C162.234 57.4496 162.215 57.5499 162.235 57.6462C162.245 57.6939 162.265 57.7391 162.293 57.7793C162.32 57.8194 162.356 57.8537 162.397 57.8801C162.438 57.9066 162.484 57.9246 162.532 57.9333C162.58 57.942 162.629 57.9411 162.677 57.9306C166.932 57.0201 168.044 59.5976 168.09 59.7082C168.118 59.7784 168.168 59.8383 168.231 59.8799C168.295 59.9215 168.37 59.9429 168.446 59.9412ZM172.685 69.3248C172.814 69.3247 172.942 69.3068 173.065 69.2715C173.857 69.0424 174.189 68.1556 174.203 68.118C174.223 68.0635 174.229 68.0053 174.223 67.9478C174.216 67.8903 174.197 67.835 174.165 67.7862C172.836 65.7479 173.186 62.9789 173.188 62.9513C173.195 62.8568 173.166 62.7633 173.106 62.6897C173.046 62.6162 172.96 62.5682 172.866 62.5556C172.772 62.543 172.677 62.5667 172.6 62.6219C172.523 62.6771 172.47 62.7596 172.452 62.8525C172.434 62.973 172.076 65.7697 173.441 68.0153C173.324 68.2616 173.119 68.4549 172.865 68.5565C172.612 68.6276 172.307 68.5288 171.957 68.2602C171.918 68.2307 171.873 68.2091 171.826 68.1966C171.779 68.1842 171.729 68.1812 171.681 68.1878C171.632 68.1944 171.586 68.2105 171.543 68.2351C171.501 68.2597 171.464 68.2924 171.434 68.3313C171.405 68.3702 171.383 68.4146 171.371 68.4619C171.358 68.5091 171.355 68.5584 171.362 68.6068C171.368 68.6552 171.384 68.7018 171.409 68.744C171.434 68.7862 171.467 68.8232 171.506 68.8528C171.835 69.1369 172.25 69.3031 172.685 69.3248Z" fill="#202234"/>
<path d="M153.82 54.6562C153.82 54.6562 153.404 67.35 161.485 74.5709C161.485 74.5709 162.328 69.9433 171.674 71.2745C181.019 72.6057 179.612 75.4814 179.612 75.4814C179.612 75.4814 181.882 75.116 183.204 62.1358C183.006 70.3264 182.682 72.6254 182.682 72.6254C182.682 72.6254 181.229 81.7226 173.5 83.3342C165.772 84.9459 154.426 80.4961 154.414 70.5911C154.414 70.5911 154.958 64.0516 153.203 60.2654C151.447 56.4792 150.594 54.9387 153.82 54.6562Z" fill="#202234"/>
<path d="M175.078 73.0579C173.635 73.6144 172.094 73.8756 170.548 73.8261C169.002 73.7766 167.481 73.4172 166.077 72.7695C164.998 74.7406 170.643 79.8738 175.078 73.0579Z" fill="#FCFAF7"/>
<path d="M176.794 62.9554C176.794 64.1128 177.437 65.0509 178.231 65.0509C179.024 65.0509 179.665 64.1128 179.665 62.9554C179.665 61.798 179.022 60.8618 178.231 60.8618C177.439 60.8618 176.794 61.8 176.794 62.9554ZM163.868 62.9554C163.868 64.1128 164.511 65.0509 165.305 65.0509C166.099 65.0509 166.742 64.1128 166.742 62.9554C166.742 61.798 166.099 60.8618 165.305 60.8618C164.511 60.8618 163.868 61.8 163.868 62.9554Z" fill="#202234"/>
<path d="M503.855 103.039H218.464C213.892 103.039 209.507 104.852 206.274 108.078C203.04 111.305 201.224 115.681 201.224 120.244V228.89C201.224 233.453 203.04 237.83 206.274 241.056C209.507 244.283 213.892 246.095 218.464 246.095H503.88C508.447 246.095 512.827 244.285 516.056 241.062C519.285 237.84 521.099 233.469 521.099 228.912V120.244C521.098 117.984 520.652 115.747 519.785 113.659C518.919 111.572 517.648 109.675 516.047 108.077C514.446 106.48 512.545 105.213 510.453 104.348C508.361 103.484 506.119 103.039 503.855 103.039Z" fill="#6EA4FE"/>
<path d="M466.754 174.855C466.754 174.855 466.004 188.817 477.012 187.707C488.02 186.597 521.113 207.623 521.113 207.623V172.931L466.754 174.855Z" fill="#5994EA"/>
<path d="M533.88 138.664L526.87 164.784L487.341 170.907L487.026 179.226C487.026 179.226 522.094 184.813 531.952 178.692C540.66 173.285 550.326 142.08 550.326 142.08L533.88 138.664Z" fill="#FB8A77"/>
<path d="M566.779 419.157C564.404 418.292 561.75 418.485 559.806 418.849C558.411 419.109 557.202 419.858 556.143 420.8C553.305 423.322 544.819 424.158 543 426.148C540.922 428.422 544.979 429.688 544.979 429.688L566.571 428.7C570.037 429.085 569.607 427.29 569.607 427.29C569.607 427.29 571.218 420.768 566.779 419.157Z" fill="#231F20"/>
<path d="M558.639 410.289L559.157 421.519C559.157 421.519 562.72 423.889 566.055 421.203L565.536 409.973L558.639 410.289Z" fill="#FB8A77"/>
<path d="M593.293 212.353C593.293 212.353 607.086 224.678 602.11 246.945C597.135 269.212 573.536 322.57 573.536 322.57L568.588 415.106L556.723 415.27L544.088 311.607C544.088 311.607 556.177 202.5 563.949 201.26C571.721 200.019 593.293 212.353 593.293 212.353Z" fill="#202234"/>
<path d="M684.478 394.931C682.041 395.458 679.941 397.004 678.516 398.326C677.495 399.274 676.88 400.528 676.494 401.867C675.461 405.452 668.843 410.589 668.379 413.196C667.847 416.174 671.888 415.102 671.888 415.102L689.325 402.973C692.41 401.48 691.106 400.208 691.106 400.208C691.106 400.208 689.018 393.947 684.478 394.931Z" fill="#231F20"/>
<path d="M673.046 391.816L679.379 400.886C679.379 400.886 683.595 400.996 684.949 397.01L678.616 387.941L673.046 391.816Z" fill="#FB8A77"/>
<path d="M610.415 202.983C610.415 202.983 612.956 200.718 622.776 221.32C628.318 232.949 628.688 258.254 628.688 258.254L642.051 301.454L683.29 392.841L676.149 397.885L612.14 312.167C612.14 312.167 557.263 209.918 563.426 205.04C569.589 200.161 610.415 202.983 610.415 202.983Z" fill="#232B57"/>
<path d="M565.954 112.006C551.122 114.145 532.156 128.498 529.488 146.941L547.686 151.768C547.686 151.768 576.423 110.497 565.954 112.006Z" fill="#4094F2"/>
<path opacity="0.25" d="M543.253 150.591L539.655 149.637L552.007 123.487C552.007 123.487 548.145 147.419 543.253 150.591Z" fill="#231F20"/>
<path d="M558.142 214.03C558.142 214.03 563.357 176.085 557.218 169.331C551.078 162.576 539.168 161.284 544.051 147.921C548.895 134.558 556.293 117.837 564.95 112.152C567.984 110.195 579.079 109.19 579.079 109.19C579.079 109.19 605.97 101.29 608.188 111.147C609.112 115.208 609.15 129.16 609.52 145.179C609.777 156.548 610.147 168.987 611.036 179.692C611.998 190.766 613.476 199.92 615.984 204.09C622.353 214.658 558.142 214.03 558.142 214.03Z" fill="#4094F2"/>
<path d="M614.925 143.538L634.748 166.735L621.322 212.162L628.088 212.687C628.088 212.687 653.089 172.147 651.218 160.711C649.566 150.609 624.419 129.703 624.419 129.703L614.925 143.538Z" fill="#FB8A77"/>
<path d="M617.834 217.23C617.834 217.23 617.298 213.775 617.945 213.005C619.447 211.228 621.755 210.684 622.456 210.919C620.443 212.881 617.834 217.23 617.834 217.23Z" fill="#FB8A77"/>
<path opacity="0.2" d="M619.424 212.679C618.967 212.733 618.513 212.865 618.052 212.877C619.554 211.188 621.769 210.681 622.456 210.902C621.864 211.5 621.315 212.138 620.811 212.812C620.362 212.677 619.89 212.632 619.424 212.679Z" fill="white"/>
<path d="M628.094 216.886C627.838 217.523 627.537 218.142 627.194 218.737C627.194 218.737 627.107 218.922 626.996 219.147C626.911 219.327 626.798 219.542 626.671 219.77C626.671 219.77 625.415 222.418 624.532 222.377C623.649 222.335 623.493 221.687 623.493 221.687C623.493 221.687 622.875 222.28 622.121 221.912C621.367 221.545 621.399 220.925 621.399 220.925C621.208 221.093 620.969 221.198 620.716 221.224C620.463 221.251 620.208 221.198 619.986 221.073C619.738 220.954 619.525 220.774 619.368 220.55C619.21 220.325 619.113 220.064 619.085 219.791C619.085 219.791 618.195 220.581 617.462 219.307C616.73 218.033 617.999 216.284 618.042 216.203C618.22 215.857 618.41 215.529 618.606 215.215C618.652 215.127 618.706 215.044 618.769 214.966C623.716 209.851 626.966 198.524 628.215 198.32C628.215 198.32 633.954 199.505 633.935 200.945C633.444 202.199 628.08 212.675 628.08 212.675C628.08 212.675 629.088 214.457 628.094 216.886Z" fill="#FB8A77"/>
<path opacity="0.2" d="M627.196 218.737C627.18 218.766 627.109 218.922 626.998 219.148C626.913 219.327 626.8 219.543 626.673 219.77C626.673 219.77 625.417 222.418 624.534 222.377C623.651 222.335 623.495 221.688 623.495 221.688C623.495 221.688 622.877 222.28 622.123 221.913C621.369 221.545 621.401 220.925 621.401 220.925C621.21 221.093 620.971 221.198 620.718 221.225C620.465 221.251 620.21 221.198 619.988 221.073C619.74 220.955 619.527 220.774 619.37 220.55C619.212 220.325 619.115 220.064 619.087 219.791C619.087 219.791 618.197 220.582 617.464 219.308C617.23 218.859 617.173 218.339 617.304 217.85C617.542 218.368 617.948 218.79 618.458 219.047C618.587 219.107 618.726 219.141 618.868 219.15C619.03 219.15 619.19 219.12 619.351 219.114C619.701 219.1 619.921 219.373 620.154 219.598C620.432 219.905 620.792 220.127 621.191 220.238C621.505 220.287 621.824 220.301 622.141 220.279C622.472 220.258 622.802 220.34 623.085 220.512C623.334 220.709 623.619 220.856 623.924 220.945C624.482 221.073 625.003 220.821 625.405 220.445C625.67 220.175 625.908 219.88 626.117 219.564C626.404 219.169 626.683 218.759 626.962 218.354C627.455 217.674 627.906 216.965 628.312 216.23C628.251 216.448 628.178 216.661 628.094 216.87C627.839 217.513 627.538 218.136 627.196 218.737Z" fill="white"/>
<path opacity="0.25" d="M611.034 179.704C609.667 176.53 607.965 173.208 605.968 170.328C600.272 162.096 587.437 164.569 587.437 164.569C604.711 160.324 605.524 151.138 605.524 151.138C606.597 148.924 608.113 146.856 609.52 145.195C609.777 156.56 610.148 168.999 611.034 179.704Z" fill="#231F20"/>
<path d="M603.953 107.049C603.953 107.049 625.07 117.532 633.121 134.986C633.121 134.986 623.633 145.367 616.433 147.8L607.967 141.583L603.953 107.049Z" fill="#4094F2"/>
<path d="M584.854 107.778L587.36 107.055C587.36 107.055 592.634 119.182 578.475 120.845C564.317 122.508 561.54 117.935 561.54 117.935C561.54 117.935 560.616 114.123 564.206 112.385C567.796 110.647 584.854 107.778 584.854 107.778Z" fill="#F56F58"/>
<path d="M572.683 59.2518C569.955 59.9925 559.729 59.9905 555.773 65.8723C551.478 72.0503 556.674 82.9092 550.214 84.116C543.21 84.2483 546.234 92.9544 552.155 96.7682C555.029 98.6781 561.655 99.958 564.643 101.609C569.449 104.769 578.329 106.387 585.015 105.245C591.744 104.315 596.296 100.62 593.632 98.0283C588.146 91.6331 596.391 89.3203 590.906 82.5122C586.487 76.504 588.634 74.7857 587.362 72.0127C583.421 62.8642 579.627 58.4776 572.683 59.2518Z" fill="#231F20"/>
<path d="M579.135 92.0835L581.037 110.9C581.037 110.9 575.174 119.59 569.312 113.114L569.471 100.464L579.135 92.0835Z" fill="#F18A66"/>
<path opacity="0.15" d="M574.333 113.355C573.073 111.216 572.59 107.961 574.541 106.057C575.333 105.287 576.36 104.805 577.114 104.003C578.06 103.006 578.23 101.493 578.094 100.181C577.868 98.0404 576.958 95.9547 577.104 93.8335L569.459 100.462L569.3 113.112C571.59 115.644 573.878 115.856 575.818 115.18C575.235 114.649 574.734 114.034 574.333 113.355Z" fill="#33133F"/>
<path d="M554.152 72.74C554.152 72.74 553.095 102.994 565.138 103.946C577.181 104.898 582.462 92.2359 582.462 92.2359C582.462 92.2359 584.68 93.6066 585.209 91.3925C585.737 89.1785 588.375 85.2797 585.737 83.8023C583.099 82.325 582.252 84.7523 582.252 84.7523L583.73 77.9008C583.73 77.9008 554.469 62.831 554.152 72.74Z" fill="#F18A66"/>
<path opacity="0.05" d="M583.418 85.1728C583.418 85.1728 585.001 84.3176 585.636 85.552C586.271 86.7864 584.876 91.5009 583.006 90.9301C583.725 90.5782 584.316 90.0111 584.697 89.308C585.077 88.6048 585.229 87.8007 585.129 87.0076C584.844 84.1378 583.831 86.0912 583.418 85.1728ZM576.117 92.4805C576.257 93.3199 575.341 94.1732 574.068 94.3884C572.796 94.6037 571.648 94.0961 571.507 93.2567C571.367 92.4173 572.281 91.5621 573.556 91.3488C574.83 91.1355 575.968 91.6431 576.117 92.4726V92.4805ZM561.699 92.5595C561.841 93.3989 560.925 94.2541 559.65 94.4674C558.376 94.6808 557.23 94.1751 557.089 93.3338C556.949 92.4924 557.863 91.6392 559.138 91.4258C560.412 91.2125 561.556 91.7122 561.699 92.5516V92.5595Z" fill="#33133F"/>
<path d="M562.312 84.6574C562.249 84.6576 562.188 84.6413 562.134 84.61C562.079 84.5788 562.034 84.5338 562.003 84.4796C561.944 84.3789 560.568 82.1095 557.194 83.6046C557.151 83.6263 557.104 83.639 557.056 83.6419C557.007 83.6448 556.959 83.6379 556.914 83.6216C556.868 83.6053 556.826 83.5799 556.791 83.5471C556.756 83.5142 556.727 83.4745 556.708 83.4304C556.689 83.3863 556.678 83.3387 556.678 83.2905C556.677 83.2423 556.687 83.1945 556.705 83.15C556.724 83.1055 556.751 83.0653 556.786 83.0317C556.821 82.9982 556.862 82.972 556.907 82.9548C560.887 81.1951 562.605 84.0964 562.623 84.1261C562.669 84.2078 562.681 84.3046 562.657 84.3953C562.632 84.486 562.572 84.5632 562.49 84.61C562.436 84.6414 562.375 84.6578 562.312 84.6574ZM569.215 84.7206C569.157 84.7204 569.1 84.7061 569.049 84.679C568.998 84.6518 568.954 84.6126 568.921 84.5647C568.889 84.5168 568.868 84.4618 568.862 84.4042C568.856 84.3467 568.863 84.2885 568.885 84.2347C568.897 84.2031 570.191 81.1062 574.87 82.1036C574.962 82.1235 575.043 82.1792 575.094 82.2585C575.145 82.3377 575.163 82.4341 575.143 82.5263C575.123 82.6184 575.067 82.699 574.988 82.7501C574.908 82.8012 574.812 82.8187 574.719 82.7988C570.652 81.9278 569.587 84.3927 569.544 84.4993C569.519 84.5673 569.474 84.626 569.414 84.6674C569.355 84.7087 569.284 84.7307 569.211 84.7304L569.215 84.7206ZM565.162 93.6893C565.039 93.689 564.918 93.6717 564.8 93.638C564.046 93.4188 563.727 92.5714 563.713 92.5359C563.694 92.4841 563.687 92.4285 563.693 92.3736C563.699 92.3187 563.718 92.2661 563.749 92.2199C565.025 90.2646 564.687 87.6239 564.683 87.5982C564.677 87.5082 564.705 87.4192 564.762 87.3493C564.82 87.2793 564.901 87.2337 564.991 87.2217C565.08 87.2096 565.171 87.232 565.245 87.2843C565.319 87.3367 565.37 87.415 565.388 87.5034C565.403 87.62 565.746 90.2922 564.45 92.4411C564.562 92.676 564.758 92.861 565 92.9605C565.239 93.0297 565.532 92.9349 565.869 92.6781C565.944 92.6269 566.036 92.6064 566.125 92.6207C566.215 92.6351 566.296 92.6832 566.352 92.7552C566.407 92.8272 566.433 92.9176 566.424 93.008C566.414 93.0983 566.371 93.1817 566.302 93.241C565.981 93.5127 565.579 93.6703 565.158 93.6893H565.162Z" fill="#231F20"/>
<path d="M562.87 97.2604C564.25 97.7923 565.722 98.0421 567.201 97.995C568.679 97.9478 570.133 97.6046 571.475 96.9858C572.506 98.8701 567.119 103.778 562.87 97.2604Z" fill="#FCFAF7"/>
<path d="M561.229 87.6023C561.229 88.7084 560.616 89.605 559.856 89.605C559.096 89.605 558.482 88.7084 558.482 87.6023C558.482 86.4963 559.098 85.5996 559.856 85.5996C560.614 85.5996 561.229 86.4963 561.229 87.6023ZM573.587 87.6023C573.587 88.7084 572.972 89.605 572.214 89.605C571.456 89.605 570.84 88.7084 570.84 87.6023C570.84 86.4963 571.456 85.5996 572.214 85.5996C572.972 85.5996 573.593 86.4963 573.593 87.6023H573.587Z" fill="#231F20"/>
<path opacity="0.05" d="M568.135 102.289C567.918 102.292 567.702 102.271 567.489 102.227C567.466 102.223 567.443 102.214 567.423 102.201C567.402 102.188 567.385 102.17 567.372 102.15C567.359 102.13 567.35 102.107 567.345 102.084C567.341 102.06 567.342 102.035 567.347 102.012C567.353 101.988 567.363 101.966 567.377 101.947C567.392 101.927 567.41 101.911 567.431 101.899C567.452 101.887 567.475 101.879 567.499 101.876C567.523 101.873 567.547 101.875 567.571 101.882C568.103 101.966 568.648 101.932 569.165 101.781C569.683 101.629 570.16 101.365 570.563 101.007C570.599 100.976 570.645 100.96 570.692 100.964C570.74 100.967 570.783 100.989 570.814 101.025C570.845 101.06 570.861 101.107 570.857 101.154C570.854 101.201 570.832 101.245 570.797 101.275C570.062 101.925 569.116 102.285 568.135 102.289Z" fill="#33133F"/>
<path d="M559.634 67.7743C559.68 67.0759 559.683 66.3755 559.644 65.6768C547.126 66.7828 553.149 79.7491 553.149 79.7491C557.503 77.5765 558.967 72.9964 559.448 69.6466C562.813 74.2407 573.34 79.7412 585.108 79.9782L586.582 77.3771L559.634 67.7743Z" fill="#231F20"/>
<path d="M558.467 67.5256C559.009 71.0254 561.522 74.0828 564.206 76.2515C567.748 79.1209 572.09 80.8301 576.641 81.1457C579.67 81.3247 582.704 80.901 585.567 79.8994C586.105 79.7157 585.874 78.8585 585.331 79.0442C580.635 80.646 575.592 80.7368 570.907 79.0442C567.189 77.6992 563.703 75.2699 561.408 72.0307C560.398 70.6126 559.607 69.0247 559.337 67.2906C559.25 66.7297 558.393 66.9686 558.479 67.5276L558.467 67.5256Z" fill="#33133F"/>
<path d="M296.939 153.538V191.609H294.158V173.5H268.653V191.609H265.882V153.538H268.653V171.041H294.158V153.538H296.939ZM337.922 189.107V191.609H311.6V153.538H337.105V156.04H314.379V171.051H334.712V173.5H314.379V189.103H337.93L337.922 189.107ZM349.419 153.538H352.19V189.107H374.158V191.609H349.419V153.538ZM382.669 153.538H385.439V189.107H407.408V191.609H382.669V153.538ZM421.2 189.352C418.24 187.726 415.778 185.33 414.075 182.417C412.36 179.481 411.503 176.2 411.503 172.573C411.503 168.947 412.36 165.667 414.075 162.732C415.777 159.819 418.24 157.422 421.2 155.797C424.211 154.109 427.588 153.265 431.331 153.265C435.075 153.265 438.453 154.099 441.466 155.768C444.425 157.381 446.884 159.771 448.578 162.68C450.303 165.617 451.166 168.916 451.164 172.577C451.163 176.239 450.301 179.539 448.578 182.476C446.884 185.385 444.424 187.776 441.466 189.389C438.45 191.059 435.072 191.893 431.331 191.892C427.591 191.89 424.214 191.044 421.2 189.352ZM440.002 187.149C442.544 185.734 444.654 183.657 446.106 181.139C447.593 178.581 448.337 175.725 448.338 172.571C448.339 169.418 447.595 166.563 446.106 164.006C444.652 161.492 442.542 159.418 440.002 158.005C437.421 156.557 434.532 155.833 431.335 155.833C428.138 155.833 425.24 156.557 422.641 158.005C420.085 159.413 417.963 161.491 416.506 164.015C415.015 166.571 414.269 169.426 414.269 172.581C414.269 175.736 415.015 178.592 416.506 181.149C417.964 183.673 420.085 185.751 422.641 187.159C425.24 188.608 428.138 189.332 431.335 189.332C434.532 189.332 437.421 188.604 440.002 187.149Z" fill="white"/>
<g opacity="0.25">
<path opacity="0.25" d="M400.21 65.3256C400.21 65.6459 400.305 65.9591 400.483 66.2254C400.662 66.4917 400.915 66.6993 401.212 66.8219C401.508 66.9445 401.834 66.9765 402.149 66.9141C402.464 66.8516 402.753 66.6973 402.98 66.4708C403.207 66.2443 403.362 65.9557 403.424 65.6416C403.487 65.3274 403.455 65.0018 403.332 64.7058C403.209 64.4099 403.001 64.157 402.734 63.979C402.467 63.801 402.154 63.7061 401.833 63.7061C401.402 63.7061 400.989 63.8767 400.685 64.1804C400.381 64.4841 400.21 64.8961 400.21 65.3256ZM390.799 65.3256C390.799 65.6459 390.894 65.9591 391.072 66.2254C391.251 66.4917 391.504 66.6993 391.801 66.8219C392.097 66.9445 392.424 66.9765 392.738 66.9141C393.053 66.8516 393.342 66.6973 393.569 66.4708C393.796 66.2443 393.951 65.9557 394.014 65.6416C394.076 65.3274 394.044 65.0018 393.921 64.7058C393.798 64.4099 393.59 64.157 393.323 63.979C393.057 63.801 392.743 63.7061 392.422 63.7061C391.991 63.7061 391.579 63.8767 391.274 64.1804C390.97 64.4841 390.799 64.8961 390.799 65.3256ZM381.388 65.3256C381.388 65.6459 381.483 65.9591 381.662 66.2254C381.84 66.4917 382.093 66.6993 382.39 66.8219C382.687 66.9445 383.013 66.9765 383.328 66.9141C383.642 66.8516 383.932 66.6973 384.159 66.4708C384.386 66.2443 384.54 65.9557 384.603 65.6416C384.665 65.3274 384.633 65.0018 384.51 64.7058C384.388 64.4099 384.18 64.157 383.913 63.979C383.646 63.801 383.332 63.7061 383.011 63.7061C382.798 63.7061 382.587 63.7479 382.39 63.8293C382.193 63.9107 382.014 64.03 381.864 64.1804C381.713 64.3308 381.593 64.5093 381.512 64.7058C381.43 64.9023 381.388 65.1129 381.388 65.3256Z" fill="#4094F2"/>
<path opacity="0.25" d="M373.598 66.9452C374.495 66.9452 375.221 66.2201 375.221 65.3256C375.221 64.4312 374.495 63.7061 373.598 63.7061C372.702 63.7061 371.975 64.4312 371.975 65.3256C371.975 66.2201 372.702 66.9452 373.598 66.9452Z" fill="#4094F2"/>
<path opacity="0.25" d="M364.188 66.9452C365.084 66.9452 365.81 66.2201 365.81 65.3256C365.81 64.4312 365.084 63.7061 364.188 63.7061C363.291 63.7061 362.565 64.4312 362.565 65.3256C362.565 66.2201 363.291 66.9452 364.188 66.9452Z" fill="#4094F2"/>
<path opacity="0.25" d="M397.253 73.3208C397.252 73.6413 397.347 73.9547 397.526 74.2213C397.704 74.488 397.957 74.6958 398.254 74.8187C398.55 74.9415 398.877 74.9737 399.192 74.9113C399.507 74.8489 399.796 74.6946 400.023 74.468C400.25 74.2414 400.405 73.9526 400.468 73.6382C400.53 73.3239 400.498 72.9981 400.375 72.7021C400.252 72.4061 400.043 72.1531 399.776 71.9753C399.509 71.7975 399.195 71.7028 398.874 71.7032C398.444 71.7037 398.032 71.8743 397.728 72.1776C397.424 72.4808 397.253 72.892 397.253 73.3208ZM387.842 73.3208C387.842 73.6412 387.937 73.9545 388.115 74.2211C388.293 74.4877 388.546 74.6956 388.843 74.8185C389.139 74.9414 389.465 74.9737 389.78 74.9115C390.095 74.8492 390.385 74.6951 390.612 74.4687C390.839 74.2422 390.994 73.9537 391.057 73.6395C391.119 73.3252 391.087 72.9995 390.965 72.7035C390.842 72.4074 390.634 72.1543 390.367 71.9763C390.1 71.7983 389.786 71.7032 389.465 71.7032C389.252 71.7027 389.04 71.7441 388.843 71.8252C388.646 71.9062 388.467 72.0252 388.316 72.1755C388.164 72.3257 388.045 72.5042 387.963 72.7007C387.881 72.8972 387.838 73.108 387.838 73.3208H387.842ZM378.431 73.3208C378.431 73.6412 378.526 73.9545 378.704 74.2211C378.882 74.4877 379.135 74.6956 379.432 74.8185C379.728 74.9414 380.055 74.9737 380.37 74.9115C380.685 74.8492 380.974 74.6951 381.201 74.4687C381.428 74.2422 381.583 73.9537 381.646 73.6395C381.709 73.3252 381.677 72.9995 381.554 72.7035C381.431 72.4074 381.223 72.1543 380.956 71.9763C380.689 71.7983 380.375 71.7032 380.054 71.7032C379.841 71.7027 379.63 71.7441 379.432 71.8252C379.235 71.9062 379.056 72.0252 378.905 72.1755C378.754 72.3257 378.634 72.5042 378.552 72.7007C378.47 72.8972 378.428 73.108 378.427 73.3208H378.431ZM369.021 73.3208C369.02 73.6412 369.115 73.9545 369.293 74.2211C369.471 74.4877 369.725 74.6956 370.021 74.8185C370.318 74.9414 370.644 74.9737 370.959 74.9115C371.274 74.8492 371.563 74.6951 371.79 74.4687C372.017 74.2422 372.172 73.9537 372.235 73.6395C372.298 73.3252 372.266 72.9995 372.143 72.7035C372.02 72.4074 371.812 72.1543 371.545 71.9763C371.278 71.7983 370.965 71.7032 370.643 71.7032C370.43 71.7027 370.219 71.7441 370.022 71.8252C369.824 71.9062 369.645 72.0252 369.494 72.1755C369.343 72.3257 369.223 72.5042 369.141 72.7007C369.059 72.8972 369.017 73.108 369.017 73.3208H369.021ZM359.61 73.3208C359.611 73.6409 359.707 73.9534 359.886 74.219C360.065 74.4845 360.319 74.6912 360.616 74.8128C360.912 74.9345 361.239 74.9657 361.553 74.9026C361.867 74.8394 362.156 74.6847 362.382 74.458C362.609 74.2312 362.763 73.9427 362.825 73.6287C362.887 73.3147 362.854 72.9893 362.731 72.6937C362.608 72.3981 362.4 72.1456 362.134 71.9679C361.867 71.7902 361.553 71.6953 361.233 71.6953C361.019 71.6948 360.807 71.7365 360.609 71.818C360.411 71.8996 360.232 72.0193 360.08 72.1704C359.929 72.3214 359.81 72.5009 359.728 72.6983C359.647 72.8957 359.605 73.1073 359.606 73.3208H359.61ZM350.197 73.3208C350.197 73.6412 350.292 73.9545 350.47 74.2211C350.648 74.4877 350.901 74.6956 351.198 74.8185C351.494 74.9414 351.82 74.9737 352.135 74.9115C352.45 74.8492 352.74 74.6951 352.967 74.4687C353.194 74.2422 353.349 73.9537 353.412 73.6395C353.474 73.3252 353.442 72.9995 353.319 72.7035C353.197 72.4074 352.989 72.1543 352.722 71.9763C352.455 71.7983 352.141 71.7032 351.82 71.7032C351.607 71.7027 351.395 71.7441 351.198 71.8252C351.001 71.9062 350.822 72.0252 350.671 72.1755C350.519 72.3257 350.4 72.5042 350.318 72.7007C350.236 72.8972 350.193 73.108 350.193 73.3208H350.197Z" fill="#4094F2"/>
</g>
<g opacity="0.25">
<path opacity="0.25" d="M277.403 316.011C277.724 316.011 278.037 315.916 278.304 315.738C278.571 315.56 278.779 315.307 278.902 315.011C279.025 314.715 279.057 314.389 278.994 314.075C278.932 313.761 278.777 313.472 278.55 313.246C278.323 313.019 278.034 312.865 277.719 312.803C277.404 312.74 277.078 312.772 276.782 312.895C276.485 313.017 276.232 313.225 276.053 313.491C275.875 313.758 275.78 314.071 275.78 314.391C275.78 314.821 275.951 315.233 276.255 315.536C276.559 315.84 276.972 316.011 277.403 316.011ZM277.403 325.402C277.724 325.402 278.037 325.307 278.304 325.129C278.571 324.951 278.779 324.698 278.902 324.402C279.025 324.106 279.057 323.781 278.994 323.467C278.932 323.152 278.777 322.864 278.55 322.637C278.323 322.411 278.034 322.257 277.719 322.194C277.404 322.132 277.078 322.164 276.782 322.286C276.485 322.409 276.232 322.616 276.053 322.883C275.875 323.149 275.78 323.462 275.78 323.782C275.781 324.211 275.952 324.622 276.257 324.925C276.561 325.228 276.973 325.398 277.403 325.398V325.402ZM277.403 334.793C277.724 334.793 278.037 334.698 278.304 334.521C278.571 334.343 278.779 334.09 278.902 333.794C279.025 333.498 279.057 333.172 278.994 332.858C278.932 332.544 278.777 332.255 278.55 332.029C278.323 331.802 278.034 331.648 277.719 331.585C277.404 331.523 277.078 331.555 276.782 331.678C276.485 331.8 276.232 332.008 276.053 332.274C275.875 332.54 275.78 332.854 275.78 333.174C275.781 333.603 275.952 334.014 276.257 334.317C276.561 334.619 276.973 334.79 277.403 334.79V334.793Z" fill="#4094F2"/>
<path opacity="0.25" d="M277.403 344.183C278.299 344.183 279.026 343.458 279.026 342.563C279.026 341.669 278.299 340.944 277.403 340.944C276.506 340.944 275.78 341.669 275.78 342.563C275.78 343.458 276.506 344.183 277.403 344.183Z" fill="#4094F2"/>
<path opacity="0.25" d="M277.403 353.575C278.299 353.575 279.026 352.849 279.026 351.955C279.026 351.061 278.299 350.335 277.403 350.335C276.506 350.335 275.78 351.061 275.78 351.955C275.78 352.849 276.506 353.575 277.403 353.575Z" fill="#4094F2"/>
<path opacity="0.25" d="M285.412 318.959C285.733 318.96 286.047 318.865 286.315 318.687C286.582 318.509 286.79 318.256 286.913 317.96C287.036 317.664 287.068 317.339 287.006 317.024C286.943 316.71 286.789 316.421 286.562 316.195C286.335 315.968 286.045 315.814 285.73 315.751C285.415 315.689 285.089 315.721 284.792 315.844C284.496 315.967 284.242 316.175 284.064 316.441C283.886 316.708 283.791 317.021 283.791 317.342C283.792 317.771 283.963 318.182 284.267 318.485C284.57 318.788 284.982 318.959 285.412 318.959ZM285.412 328.353C285.733 328.353 286.047 328.258 286.314 328.081C286.581 327.903 286.79 327.65 286.913 327.354C287.036 327.058 287.068 326.733 287.006 326.418C286.944 326.104 286.789 325.815 286.562 325.589C286.336 325.362 286.046 325.208 285.731 325.145C285.417 325.082 285.09 325.114 284.794 325.237C284.497 325.359 284.243 325.567 284.065 325.833C283.887 326.1 283.791 326.413 283.791 326.733C283.791 327.162 283.962 327.574 284.266 327.878C284.57 328.181 284.982 328.352 285.412 328.353ZM285.412 337.744C285.733 337.745 286.047 337.65 286.314 337.472C286.581 337.294 286.79 337.042 286.913 336.746C287.036 336.45 287.068 336.124 287.006 335.81C286.944 335.496 286.789 335.207 286.562 334.98C286.336 334.753 286.046 334.599 285.731 334.536C285.417 334.474 285.09 334.506 284.794 334.628C284.497 334.751 284.243 334.958 284.065 335.225C283.887 335.491 283.791 335.804 283.791 336.125C283.793 336.552 283.965 336.962 284.269 337.264C284.572 337.566 284.983 337.736 285.412 337.736V337.744ZM285.412 347.136C285.733 347.136 286.047 347.041 286.314 346.864C286.581 346.686 286.79 346.433 286.913 346.137C287.036 345.841 287.068 345.516 287.006 345.201C286.944 344.887 286.789 344.598 286.562 344.372C286.336 344.145 286.046 343.99 285.731 343.928C285.417 343.865 285.09 343.897 284.794 344.02C284.497 344.142 284.243 344.35 284.065 344.616C283.887 344.882 283.791 345.196 283.791 345.516C283.791 345.945 283.962 346.357 284.266 346.661C284.57 346.964 284.982 347.135 285.412 347.136ZM285.412 356.527C285.733 356.527 286.047 356.433 286.314 356.255C286.581 356.077 286.79 355.825 286.913 355.529C287.036 355.233 287.068 354.907 287.006 354.593C286.944 354.278 286.789 353.99 286.562 353.763C286.336 353.536 286.046 353.382 285.731 353.319C285.417 353.257 285.09 353.289 284.794 353.411C284.497 353.534 284.243 353.741 284.065 354.008C283.887 354.274 283.791 354.587 283.791 354.908C283.791 355.337 283.962 355.748 284.266 356.052C284.57 356.356 284.982 356.527 285.412 356.527ZM285.412 365.919C285.733 365.919 286.047 365.824 286.314 365.647C286.581 365.469 286.79 365.216 286.913 364.92C287.036 364.624 287.068 364.299 287.006 363.984C286.944 363.67 286.789 363.381 286.562 363.154C286.336 362.928 286.046 362.773 285.731 362.711C285.417 362.648 285.09 362.68 284.794 362.803C284.497 362.925 284.243 363.133 284.065 363.399C283.887 363.665 283.791 363.979 283.791 364.299C283.791 364.728 283.962 365.14 284.266 365.443C284.57 365.747 284.982 365.918 285.412 365.919Z" fill="#4094F2"/>
</g>
<path d="M474.027 182.39C476.331 182.372 478.381 182.254 479.43 182.032C480.199 181.867 480.95 181.628 481.672 181.319C482.212 181.088 482.737 180.825 483.244 180.529C483.924 180.147 484.568 179.704 485.168 179.204L502.228 179.895C502.988 176.684 502.376 172.181 502.228 171.416C502.228 171.416 486.496 172.193 484.237 170.312C484.214 170.298 484.193 170.281 484.174 170.261C484.152 170.227 484.129 170.188 484.107 170.148C483.733 169.587 482.852 169.027 481.785 168.586C480.976 168.256 480.136 168.008 479.278 167.843C477.211 167.448 474.896 162.197 473.75 162.803C472.604 163.409 473.121 166.83 474.5 167.901C475.88 168.971 474.896 170.19 473.235 170.19H472.713C469.392 170.19 459.12 170.241 458.859 171.9C458.689 172.983 462.952 173.389 466.259 173.543C462.206 173.504 456.395 173.656 456.809 174.857C457.127 175.779 463.007 176.346 466.293 176.634C464.023 176.646 459.534 176.832 459.516 177.608C459.482 179.285 464.135 179.516 467.274 179.483C465.408 179.631 463.284 179.998 463.154 180.893C462.999 181.981 469.095 182.435 474.027 182.39Z" fill="#FB8A77"/>
<path opacity="0.25" d="M471.88 173.759C471.88 173.759 471.87 173.759 471.866 173.759L466.75 173.411L471.878 173.474C471.888 173.474 472.076 172.408 472.244 171.894C472.124 172.66 472.058 173.434 472.046 174.209C472.046 174.495 472.046 174.784 472.046 175.07C472.044 175.074 471.866 173.907 471.88 173.759ZM471.88 176.988H471.87L466.754 176.64L471.846 176.703C471.827 176.269 471.898 175.835 472.054 175.429C472.054 175.795 472.076 176.16 472.107 176.524C472.14 176.966 472.206 177.406 472.305 177.839C472.24 177.855 471.919 177.29 471.866 176.988H471.88ZM472.527 179.522L467.399 179.488L472.483 179.239C472.436 179.109 472.311 178.206 472.39 178.193C472.44 178.39 472.489 178.588 472.543 178.785C472.741 179.528 472.992 180.26 473.251 180.991C472.988 180.509 472.543 179.522 472.521 179.522H472.527Z" fill="#231F20"/>
<path d="M288.498 98.6568C288.498 98.6568 288.322 98.8306 288.039 99.1229C288.029 97.9912 287.769 96.7133 286.653 96.6126C284.632 96.4289 278.952 104.179 280.716 104.908C281.507 105.234 283.015 104.467 284.444 103.525C283.455 105.105 283.722 107.278 285.272 107.539C287.569 107.934 288.785 105.471 289.883 104.068C288.541 106.198 287.791 109.763 289.37 109.699C291.664 109.609 294.352 104.884 294.352 104.884C294.352 104.884 291.967 108.728 294.352 109.644C296.357 110.412 298.364 103.043 298.364 103.043C298.364 103.043 295.102 94.9042 288.498 98.6568Z" fill="#FB8A77"/>
</g>
<defs>
<filter id="filter0_d_1_58" x="0" y="0" width="715" height="486" filterUnits="userSpaceOnUse" color-interpolation-filters="sRGB">
<feFlood flood-opacity="0" result="BackgroundImageFix"/>
<feColorMatrix in="SourceAlpha" type="matrix" values="0 0 0 0 0 0 0 0 0 0 0 0 0 0 0 0 0 0 127 0" result="hardAlpha"/>
<feOffset dy="4"/>
<feGaussianBlur stdDeviation="2"/>
<feComposite in2="hardAlpha" operator="out"/>
<feColorMatrix type="matrix" values="0 0 0 0 0 0 0 0 0 0 0 0 0 0 0 0 0 0 0.25 0"/>
<feBlend mode="normal" in2="BackgroundImageFix" result="effect1_dropShadow_1_58"/>
<feBlend mode="normal" in="SourceGraphic" in2="effect1_dropShadow_1_58" result="shape"/>
</filter>
<clipPath id="clip0_1_58">
<rect width="707" height="478" fill="white" transform="translate(4)"/>
</clipPath>
</defs>
</svg>
